<svg width="3840" height="1794" viewBox="0 0 3840 1794" fill="none" xmlns="http://www.w3.org/2000/svg">
<g clip-path="url(#clip0_2903_449)">
<rect width="3840" height="906.107" transform="translate(0 887.894)" fill="white"/>
<rect y="107.894" width="3840" height="1576" fill="#FAFCFC"/>
<rect y="107.894" width="3840" height="1576" fill="url(#paint0_linear_2903_449)"/>
<rect y="107.894" width="3840" height="1576" fill="url(#paint1_radial_2903_449)"/>
</g>
<g clip-path="url(#clip1_2903_449)">
<rect y="91.0664" width="3840" height="700" fill="#FAFCFC"/>
<rect y="11.0664" width="3840" height="1576" fill="#FAFCFC"/>
<rect y="11.0664" width="3840" height="1576" fill="url(#paint2_linear_2903_449)"/>
<rect y="11.0664" width="3840" height="1576" fill="url(#paint3_radial_2903_449)"/>
</g>
<g clip-path="url(#clip2_2903_449)">
<path d="M0 0H3840V1576H0V0Z" fill="#FAFCFC"/>
<path d="M0 0H3840V1576H0V0Z" fill="url(#paint4_linear_2903_449)"/>
<path d="M0 0H3840V1576H0V0Z" fill="url(#paint5_radial_2903_449)"/>
</g>
<defs>
<linearGradient id="paint0_linear_2903_449" x1="2292.5" y1="-980.606" x2="2170.5" y2="1683.89" gradientUnits="userSpaceOnUse">
<stop stop-color="#00A5CC" stop-opacity="0.24"/>
<stop offset="1" stop-color="#00A5CC" stop-opacity="0"/>
</linearGradient>
<radialGradient id="paint1_radial_2903_449" cx="0" cy="0" r="1" gradientUnits="userSpaceOnUse" gradientTransform="translate(2534 313.894) rotate(53.9333) scale(428.042 1042.95)">
<stop stop-color="#01BFD2" stop-opacity="0.32"/>
<stop offset="1" stop-color="#01BFD2" stop-opacity="0"/>
</radialGradient>
<linearGradient id="paint2_linear_2903_449" x1="2292.5" y1="-1077.43" x2="2170.5" y2="1587.07" gradientUnits="userSpaceOnUse">
<stop stop-color="#00A5CC" stop-opacity="0.24"/>
<stop offset="1" stop-color="#00A5CC" stop-opacity="0"/>
</linearGradient>
<radialGradient id="paint3_radial_2903_449" cx="0" cy="0" r="1" gradientUnits="userSpaceOnUse" gradientTransform="translate(2534 217.066) rotate(53.9333) scale(428.042 1042.95)">
<stop stop-color="#01BFD2" stop-opacity="0.32"/>
<stop offset="1" stop-color="#01BFD2" stop-opacity="0"/>
</radialGradient>
<linearGradient id="paint4_linear_2903_449" x1="2292.5" y1="-1088.5" x2="2170.5" y2="1576" gradientUnits="userSpaceOnUse">
<stop stop-color="#00A5CC" stop-opacity="0.24"/>
<stop offset="1" stop-color="#00A5CC" stop-opacity="0"/>
</linearGradient>
<radialGradient id="paint5_radial_2903_449" cx="0" cy="0" r="1" gradientUnits="userSpaceOnUse" gradientTransform="translate(2534 206) rotate(53.9333) scale(428.042 1042.95)">
<stop stop-color="#01BFD2" stop-opacity="0.32"/>
<stop offset="1" stop-color="#01BFD2" stop-opacity="0"/>
</radialGradient>
<clipPath id="clip0_2903_449">
<rect width="3840" height="906.107" fill="white" transform="translate(0 887.894)"/>
</clipPath>
<clipPath id="clip1_2903_449">
<rect width="3840" height="796.827" fill="white" transform="translate(0 91.0664)"/>
</clipPath>
<clipPath id="clip2_2903_449">
<rect width="3840" height="91.066" fill="white"/>
</clipPath>
</defs>
</svg>
