<svg width="42" height="40" viewBox="0 0 42 40" fill="none" xmlns="http://www.w3.org/2000/svg">
<path d="M16 12V24L25.4 29.8L27 27.4L19 22.6V12H16Z" fill="#FF9B62"/>
<path d="M31.84 20C31.94 20.66 32 21.32 32 22C32 29.8 25.8 36 18 36C10.2 36 4 29.8 4 22C4 14.2 10.2 8 18 8C19.4 8 20.74 8.2 22 8.58V4.46C20.72 4.16 19.38 4 18 4C8 4 0 12 0 22C0 32 8 40 18 40C28 40 36 32 36 22C36 21.32 35.96 20.66 35.88 20H31.84Z" fill="#FF9B62"/>
<path d="M36 6V0H32V6H26V10H32V16H36V10H42V6H36Z" fill="#FF9B62"/>
</svg>
