<svg aria-hidden="true" style="position:absolute;width:0;height:0;overflow:hidden"
    xmlns="http://www.w3.org/2000/svg">
    <defs>
        <symbol id="icon-clock" viewBox="0 0 46 48">
            <path d="M19.0476 16V28L28 33.8L29.5238 31.4L21.9048 26.6V16H19.0476Z" />
            <path d="M34.1334 24C34.4205 25.9879 34.2939 28.0175 33.7623 29.9491C33.2307 31.8806 32.3067 33.6683 31.054 35.1889C29.8013 36.7096 28.2495 37.9271 26.5057 38.7576C24.7618 39.5882 22.8673 40.012 20.9524 40C13.5239 40 7.61909 33.8 7.61909 26C7.61909 18.2 13.5239 12 20.9524 12C22.2858 12 23.562 12.2 24.762 12.58V8.46C23.5429 8.16 22.2667 8 20.9524 8C11.4286 8 3.80957 16 3.80957 26C3.80957 36 11.4286 44 20.9524 44C23.3671 44.0105 25.7564 43.4831 27.9626 42.4526C30.1687 41.422 32.1416 39.9118 33.751 38.0216C35.3603 36.1315 36.5695 33.9044 37.2987 31.4873C38.0278 29.0703 38.2604 26.5184 37.981 24H34.1334Z" />
            <path d="M38.0953 10V4H34.2858V10H28.5715V14H34.2858V20H38.0953V14H43.8096V10H38.0953Z" />

        </symbol>
        <symbol id="icon-bag" viewBox="0 0 32 32">
            <path d="M12.8 20.48v-1.28h-8.947l-0.013 5.12c0 1.421 1.139 2.56 2.56 2.56h17.92c1.421 0 2.56-1.139 2.56-2.56v-5.12h-8.96v1.28h-5.12zM25.6 8.96h-5.133v-2.56l-2.56-2.56h-5.12l-2.56 2.56v2.56h-5.107c-1.408 0-2.56 1.152-2.56 2.56v3.84c0 1.421 1.139 2.56 2.56 2.56h7.68v-2.56h5.12v2.56h7.68c1.408 0 2.56-1.152 2.56-2.56v-3.84c0-1.408-1.152-2.56-2.56-2.56zM17.92 8.96h-5.12v-2.56h5.12v2.56z"/>
        </symbol>
        <symbol id="icon-ok" viewBox="0 0 32 32">
            <path d="M12 28h12c1.107 0 2.053-0.667 2.453-1.627l4.027-9.4c0.12-0.307 0.187-0.627 0.187-0.973v-2.667c0-1.467-1.2-2.667-2.667-2.667h-8.413l1.267-6.093 0.040-0.427c0-0.547-0.227-1.053-0.587-1.413l-1.413-1.4-8.787 8.787c-0.48 0.48-0.773 1.147-0.773 1.88v13.333c0 1.467 1.2 2.667 2.667 2.667zM12 12l5.787-5.787-1.787 7.12h12v2.667l-4 9.333h-12v-13.333zM1.333 12h5.333v16h-5.333v-16z"/>
        </symbol>
        <symbol id="icon-scale" viewBox="0 0 32 32">
            <path d="M2.667 26.653l10-10.013 5.333 5.333 9.453-10.627 1.88 1.88-11.333 12.747-5.333-5.333-8 8.013-2-2zM4.667 20.653l8-8.013 5.333 5.333 11.333-12.747-1.88-1.88-9.453 10.627-5.333-5.333-10 10.013 2 2z"/>
        </symbol>
        <symbol id="icon-house" viewBox="0 0 32 32">
            <path d="M16 9.333v-5.333h-13.333v24h26.667v-18.667h-13.333zM8 25.333h-2.667v-2.667h2.667v2.667zM8 20h-2.667v-2.667h2.667v2.667zM8 14.667h-2.667v-2.667h2.667v2.667zM8 9.333h-2.667v-2.667h2.667v2.667zM13.333 25.333h-2.667v-2.667h2.667v2.667zM13.333 20h-2.667v-2.667h2.667v2.667zM13.333 14.667h-2.667v-2.667h2.667v2.667zM13.333 9.333h-2.667v-2.667h2.667v2.667zM26.667 25.333h-10.667v-2.667h2.667v-2.667h-2.667v-2.667h2.667v-2.667h-2.667v-2.667h10.667v13.333zM24 14.667h-2.667v2.667h2.667v-2.667zM24 20h-2.667v2.667h2.667v-2.667z"/>
        </symbol>
        <symbol id="icon-icf" viewBox="0 0 60 32">
            <path d="M0.233 30.545v-29.074h7.895v29.074h-7.895zM27.439 7.497c-0.928 0-1.757 0.199-2.486 0.597-0.729 0.384-1.352 0.948-1.869 1.69s-0.915 1.651-1.193 2.724c-0.265 1.061-0.398 2.267-0.398 3.619 0 1.83 0.232 3.367 0.696 4.614s1.167 2.188 2.108 2.824c0.955 0.636 2.148 0.954 3.579 0.954 1.299 0 2.545-0.179 3.739-0.537 1.206-0.358 2.42-0.789 3.639-1.293v6.642c-1.286 0.57-2.605 0.981-3.957 1.233-1.339 0.252-2.764 0.378-4.276 0.378-3.155 0-5.741-0.623-7.756-1.869-2.002-1.259-3.48-3.003-4.435-5.23-0.941-2.227-1.412-4.813-1.412-7.756 0-2.201 0.305-4.216 0.915-6.045 0.623-1.83 1.531-3.414 2.724-4.753 1.193-1.352 2.665-2.393 4.415-3.122 1.763-0.742 3.778-1.114 6.046-1.114 1.405 0 2.884 0.166 4.435 0.497 1.564 0.318 3.089 0.835 4.574 1.551l-2.406 6.185c-1.061-0.504-2.134-0.928-3.222-1.273s-2.241-0.517-3.46-0.517zM48.739 30.545h-7.736v-29.074h17.182v6.304h-9.446v5.548h8.71v6.304h-8.71v10.918z"/>
        </symbol>
    </defs>
</svg>


