<svg width="21" height="21" viewBox="0 0 21 21" fill="none" xmlns="http://www.w3.org/2000/svg">
<path d="M14.6471 13.3456L14.3944 13.6687H14.8047H15.4096C15.5948 13.6687 15.77 13.741 15.899 13.8699L19.5981 17.569C19.5982 17.5691 19.5983 17.5692 19.5984 17.5693C19.866 17.8401 19.8658 18.2779 19.5951 18.5486L18.5449 19.5988L18.5442 19.5996C18.2777 19.8689 17.8409 19.87 17.5697 19.5988L13.8699 15.899C13.741 15.77 13.6688 15.5948 13.6688 15.4096V14.8047V14.3944L13.3456 14.6471C12.0696 15.6448 10.465 16.2375 8.71875 16.2375C4.56534 16.2375 1.2 12.8722 1.2 8.71875C1.2 4.56534 4.56534 1.2 8.71875 1.2C12.8722 1.2 16.2375 4.56534 16.2375 8.71875C16.2375 10.465 15.6448 12.0696 14.6471 13.3456ZM3.76875 8.71875C3.76875 11.4567 5.98476 13.6687 8.71875 13.6687C11.4567 13.6687 13.6688 11.4527 13.6688 8.71875C13.6688 5.98085 11.4527 3.76875 8.71875 3.76875C5.98085 3.76875 3.76875 5.98476 3.76875 8.71875Z" fill="#00A5CC" stroke="#FAFCFC" stroke-width="0.4"/>
<rect x="0.5" y="0.5" width="20" height="20" stroke="#FAFCFC"/>
</svg>
