<svg aria-hidden="true" style="position:absolute;width:0;height:0;overflow:hidden"
    xmlns="http://www.w3.org/2000/svg">
    <defs>
        <symbol id="icon-toDo" viewBox="0 0 30 32">
            <path d="M6.402 2.382c0-.411-.003-.785 0-1.16.005-.47.252-.752.648-.751s.641.284.645.755c.004.365 0 .731 0 1.126h8.871c0-.371-.003-.742 0-1.117.004-.473.244-.758.639-.765s.651.271.66.742c.007.375 0 .751 0 1.17h.402c.914.015 1.834-.032 2.74.059 1.527.154 2.733 1.504 2.772 3.064.037 1.466.016 2.933.017 4.402v7.195c2 .438 3.579 1.485 4.694 3.211a7.064 7.064 0 0 1 1.143 4.324c-.189 3.279-2.442 5.983-5.565 6.708-3.386.788-6.996-1.033-8.302-4.446H3.775c-1.664 0-2.981-1.129-3.264-2.785a4.03 4.03 0 0 1-.039-.677C.47 17.58.47 11.723.472 5.866c0-2.086 1.386-3.483 3.447-3.485l2.483-.002zm9.013 23.204c-.338-2.251.15-4.26 1.574-5.984s3.29-2.558 5.484-2.624V8.627H1.768v14.709c0 1.441.791 2.25 2.205 2.25h11.071l.37.001zm12.932-1.318c.016-3.267-2.623-5.953-5.858-5.963-3.219-.01-5.854 2.642-5.871 5.91-.018 3.298 2.582 5.975 5.816 5.993.773.005 1.54-.145 2.256-.441s1.367-.733 1.916-1.284c.549-.552.986-1.208 1.284-1.931s.454-1.499.456-2.283zM6.408 3.749c-1.05 0-2.074-.079-3.081.025-.803.083-1.36.671-1.484 1.485-.099.649-.02 1.326-.02 2.006h20.681c0-.517.003-1.011 0-1.506-.009-1.195-.825-2.033-2.005-2.046-.785-.009-1.574 0-2.361 0a2.22 2.22 0 0 0-.257.029v.573c0 .194.006.389 0 .583-.018.449-.267.722-.651.723-.397 0-.65-.284-.655-.75-.005-.374 0-.749 0-1.132H7.704v.896c0 .685-.193.981-.64.986s-.655-.293-.655-.971v-.901z"/>
            <path d="M6.402 2.382h-.471v.233l.186.141.285-.374zm0-1.16-.471-.005v.001l.471.004zm1.293.004-.471.004v.001l.471-.005zm0 1.126h-.471v.471h.471v-.471zm8.871 0v.471h.471v-.471h-.471zm0-1.117zm1.299-.022zm0 1.17h-.471v.471h.471v-.471zm.402 0 .008-.471h-.008v.471zm2.74.06-.047.468.047-.468zm2.772 3.064zm.016 4.402zm0 7.195h-.471v.379l.37.081.101-.46zm4.695 3.211-.395.255.002.003.393-.259zm1.143 4.325-.47-.03v.003l.47.027zm-5.565 6.707-.106-.458.107.458zm-8.302-4.446.44-.168-.116-.302h-.324v.471zM.511 24.116l-.466.067.001.006.001.006.464-.079zm-.039-.677.47.013v-.014H.471zm0-17.57zm3.447-3.486v-.471h-.001l.001.471zm2.485 0v.471H7.8l-1.111-.845-.285.374zm9.011 23.203-.001.471.547.001-.081-.541-.465.07zm7.059-8.609.014.47.456-.014v-.457h-.471zm0-8.351h.471v-.471h-.471v.471zm-20.705 0v-.471h-.471v.471h.471zm13.276 16.959.001-.471h-.001v.471zm7.445-7.279zm-5.871 5.909zm5.816 5.993.003-.471-.003.471zM6.408 3.749h.471v-.471h-.471v.471zm-3.081.025-.048-.468.048.468zM1.843 5.259zm-.02 2.006h-.471v.471h.471v-.471zm20.681 0v.471h.471v-.471h-.471zm0-1.506.471-.003v-.001l-.471.003zm-2.006-2.046-.005.471.005-.471zm-2.361 0v-.471h-.013l-.013.001.027.47zm-.257.028-.077-.464-.393.066v.399h.471zm0 1.157.47.019v-.005l-.47-.014zm-.651.723v.471h.001l-.001-.471zm-.655-.75zm0-1.132h.471v-.471h-.471v.471zm-8.872 0v-.471h-.471v.471h.471zm-.829-1.357c0-.417-.003-.784 0-1.156l-.941-.008c-.003.377 0 .758 0 1.164h.941zm0-1.155c.002-.158.043-.227.063-.249.011-.013.035-.036.114-.036l.003-.941a1.066 1.066 0 0 0-.828.361c-.204.236-.289.543-.292.855l.941.01zm.176-.286c.079 0 .102.024.114.037.019.022.061.092.062.251l.941-.007C8.164.91 8.081.603 7.878.365a1.068 1.068 0 0 0-.826-.366L7.049.94zm.175.29c.004.363 0 .72 0 1.122h.941c0-.389.004-.763 0-1.131l-.941.009zm.471 1.592h8.871v-.941H7.695v.941zm9.341-.471c0-.376-.003-.741 0-1.114l-.941-.007c-.003.376 0 .754 0 1.12h.941zm0-1.113c.001-.162.043-.235.063-.259.012-.014.036-.038.114-.039L17.197 0a1.07 1.07 0 0 0-.819.376c-.2.238-.28.545-.282.856l.941.007zm.177-.298c.078-.001.104.022.117.036.019.022.062.089.065.245l.941-.018c-.006-.315-.096-.623-.305-.856A1.07 1.07 0 0 0 17.198 0l.016.941zm.182.281c.007.37 0 .731 0 1.161h.941c0-.407.007-.798 0-1.178l-.941.017zm.47 1.632H18.377v-.941H17.865v.941zm.394 0c.958.016 1.819-.032 2.7.057l.095-.936c-.932-.094-1.91-.048-2.78-.062l-.015.941zm2.7.057c1.279.129 2.315 1.273 2.349 2.608l.941-.024c-.045-1.785-1.421-3.341-3.195-3.521l-.095.936zm2.349 2.608c.037 1.458.016 2.912.017 4.39l.941-.001c-.001-1.459.02-2.94-.017-4.413l-.941.024zm.017 4.39V16.565h.941V9.909h-.941zm0 6.795v.4h.941v-.4h-.941zm.37.86c1.885.412 3.355 1.391 4.399 3.007l.791-.511c-1.186-1.836-2.874-2.953-4.989-3.416l-.201.919zm4.401 3.01a6.597 6.597 0 0 1 1.067 4.036l.939.06a7.535 7.535 0 0 0-1.22-4.613l-.786.517zm1.067 4.038c-.178 3.076-2.287 5.601-5.201 6.277l.213.917c3.332-.773 5.727-3.657 5.928-7.139l-.94-.054zm-5.202 6.277c-3.16.735-6.535-.966-7.756-4.156l-.879.336c1.391 3.636 5.237 5.576 8.848 4.736l-.213-.917zm-8.195-4.458h-.375v.941h.375v-.941zm-.375 0H3.615v.941H15.391v-.941zm-11.616 0c-1.429 0-2.555-.958-2.8-2.394l-.928.158c.321 1.878 1.83 3.177 3.728 3.177v-.941zM.977 24.049a3.506 3.506 0 0 1-.034-.597l-.941-.026c-.007.253.007.506.043.756l.932-.133zm-.034-.61c-.002-5.857-.002-11.714 0-17.57H.002C0 11.726 0 17.583.002 23.44h.941zm0-17.57c0-.937.309-1.683.815-2.193s1.241-.821 2.163-.822l-.001-.941c-1.14.001-2.127.39-2.83 1.101S.003 4.72.003 5.869h.941zm2.976-3.015h2.485v-.941H3.919v.941zm2.77-.845-.002-.002-.57.749.002.002.57-.749zm9.192 23.507c-.32-2.131.14-4.003 1.472-5.615l-.726-.599c-1.517 1.837-2.033 3.983-1.677 6.354l.931-.14zm1.471-5.615c1.331-1.612 3.066-2.391 5.136-2.453l-.028-.941c-2.318.07-4.316.958-5.833 2.795l.726.599zm5.592-2.924V8.626h-.941v8.351h.941zm-.47-8.821H1.769v.941h20.705v-.941zm-21.175.47v.378h.941v-.378h-.941zm0 .379V23.341h.941V9.005h-.941zm0 14.33c0 .804.222 1.5.707 1.995.486.496 1.173.726 1.969.726v-.941c-.618 0-1.034-.175-1.297-.443-.264-.27-.438-.699-.438-1.336h-.941zm2.675 2.721H15.238v-.941H3.974v.941zm11.07 0 .37.001.001-.941-.37-.001-.001.941zm13.774-1.785c.017-3.523-2.827-6.425-6.327-6.436l-.003.941c2.97.009 5.403 2.479 5.389 5.49l.941.005zm-6.327-6.436c-3.485-.011-6.324 2.857-6.343 6.378l.941.005c.016-3.015 2.446-5.451 5.399-5.442l.003-.941zm-6.343 6.378c-.019 3.549 2.782 6.447 6.285 6.466l.005-.941c-2.966-.016-5.365-2.474-5.348-5.52l-.941-.005zm6.284 6.466a6.276 6.276 0 0 0 2.438-.477l-.36-.87a5.345 5.345 0 0 1-2.073.406l-.006.941zm2.439-.477a6.348 6.348 0 0 0 2.07-1.387l-.667-.664a5.4 5.4 0 0 1-1.763 1.181l.36.87zm2.07-1.387a6.436 6.436 0 0 0 1.386-2.084l-.87-.359a5.49 5.49 0 0 1-1.183 1.779l.667.664zm1.385-2.084a6.51 6.51 0 0 0 .492-2.461l-.941-.003a5.563 5.563 0 0 1-.42 2.105l.87.359zM6.408 3.279c-1 0-2.091-.079-3.129.027l.096.936c.975-.1 1.933-.022 3.032-.022v-.941zm-3.129.027c-1.041.107-1.748.882-1.901 1.882l.93.142c.096-.628.503-1.03 1.067-1.088l-.096-.936zM1.378 5.188c-.056.365-.06.728-.053 1.072.008.363.027.666.027 1.004h.941c0-.342-.02-.717-.027-1.025a5.336 5.336 0 0 1 .042-.91l-.93-.142zm.445 2.548h20.681v-.941H1.823v.941zm21.151-.471c0-.512.003-1.013 0-1.509l-.941.006c.003.493 0 .982 0 1.503h.941zm0-1.51c-.005-.706-.251-1.335-.698-1.792s-1.069-.713-1.773-.721l-.011.941c.476.005.853.175 1.111.438s.426.652.429 1.141l.941-.007zm-2.47-2.513c-.788-.009-1.587 0-2.367 0v.941c.795 0 1.575-.009 2.356 0l.011-.941zm-2.394.001a2.9 2.9 0 0 0-.308.034l.155.928c.068-.011.137-.019.207-.023l-.053-.94zm-.701.498V4.293h.941V3.741h-.941zm0 .574c0 .214.006.383 0 .569l.941.028c.006-.203 0-.423 0-.597h-.941zm.001.564c-.006.144-.047.21-.067.233-.015.016-.041.038-.114.038l.003.941c.311-.001.6-.116.81-.349.204-.226.297-.521.309-.825l-.94-.038zm-.181.271c-.079 0-.106-.024-.121-.04-.021-.024-.062-.093-.064-.245l-.941.012c.004.313.092.619.298.854.213.242.51.36.828.36V5.15zm-.185-.285c-.005-.371 0-.735 0-1.126h-.941c0 .374-.005.76 0 1.138l.941-.012zm-.47-1.596H7.703v.941h8.871v-.941zm-9.342.47v.896h.941v-.896h-.941zm0 .896c0 .318-.049.449-.076.492l-.006.008-.002.002-.001.001a.222.222 0 0 1-.088.013l.01.941c.342-.004.668-.13.877-.452.18-.278.228-.638.228-1.004h-.941zm-.174.515c-.06.001-.084-.009-.089-.011-.001 0-.004 0-.012-.012-.027-.04-.078-.167-.078-.476h-.941c0 .368.053.729.241 1.006.216.317.546.439.889.435l-.01-.941zm-.18-.5v-.901h-.941v.901h.941zM11.491 15.602H6.704c-.106.003-.213 0-.319-.008a.65.65 0 0 1-.435-1.08.662.662 0 0 1 .414-.222c.095-.009.191-.012.287-.007h9.83c.418.014.717.292.714.667s-.279.64-.692.649c-.468.011-.936.004-1.404.004l-3.606-.002zM9.48 19.905c-.999 0-1.999.005-2.998-.003-.403-.003-.689-.282-.698-.648s.264-.643.672-.672c.095-.006.191-.003.287-.003h5.327c.117 0 .234-.003.351 0 .439.019.709.274.707.664s-.277.656-.712.659c-.979.007-1.957.003-2.935.003z"/>
            <path d="M21.631 25.627c.325-.313.64-.615.953-.919.941-.908 1.872-1.823 2.824-2.719.143-.136.366-.265.549-.256.19.01.452.145.536.305.092.174.041.445 0 .663-.02.106-.157.198-.247.287-1.344 1.306-2.689 2.61-4.036 3.914-.437.424-.745.42-1.173-.013-.76-.77-1.524-1.538-2.278-2.312-.392-.404-.273-.986.223-1.141.29-.09.516.029.716.234.562.574 1.125 1.147 1.689 1.719.069.075.149.147.242.238z"/>
        </symbol>
        <symbol id="icon-puzzle" viewBox="0 0 32 32">
            <path d="M13.574.471c.272.157.367.39.364.705-.013 1.124-.005 2.247-.005 3.366v.366c.94-.204 1.768-.041 2.434.653a2.262 2.262 0 0 1 .656 1.738 2.315 2.315 0 0 1-1.009 1.847c-.622.443-1.318.519-2.081.346v3.783c0 .476-.185.66-.662.661H9.49c.209.918.049 1.72-.597 2.382a2.31 2.31 0 0 1-1.776.711c-1.232-.033-2.622-1.157-2.214-3.093h-.329c-1.132 0-2.265-.008-3.396.005-.316 0-.548-.092-.705-.364V.471h13.103zm-.675 12.428V8.814c0-.446.302-.66.727-.532.232.07.459.157.691.214.542.131 1.006-.02 1.359-.447a1.255 1.255 0 0 0 .181-1.421c-.237-.499-.65-.787-1.21-.76-.315.016-.628.131-.934.224-.537.163-.819-.034-.819-.599V1.526H1.526v11.371H5.516c.538 0 .745.293.579.808-.065.202-.146.4-.193.605-.123.538.011 1.009.442 1.362s.935.425 1.445.173c.494-.245.773-.664.741-1.219-.017-.305-.132-.605-.224-.904-.166-.54.029-.824.59-.825h3.305l.697.002z"/>
            <path d="m13.574.471.118-.204-.055-.032h-.063V.47zm.364.705zm-.006 3.731h-.235v.292l.285-.062-.05-.23zm2.434.653-.17.163.003.003.167-.166zm.656 1.737-.235-.014v.008l.235.006zm-1.009 1.848-.133-.194-.004.003.137.192zm-2.081.345.052-.229-.287-.065v.295h.235zm-.662 4.445v.235-.235zm-3.781 0V13.7h-.295l.066.288.229-.052zm-.598 2.382-.168-.164-.002.002.17.163zm-1.776.711.011-.235h-.005l-.006.235zm-2.214-3.093.23.049.06-.284h-.29v.235zm-3.725.005v.235h.003l-.003-.235zm-.705-.364H.236v.063l.032.055.204-.118zm0-13.105V.236H.236v.235h.235zm12.428 12.428-.001.235.236.001v-.236h-.235zm.727-4.616.068-.225h-.001l-.067.225zm.691.214-.056.229h.001l.055-.229zm1.359-.447-.175-.157-.003.004-.003.004.181.15zm.181-1.421-.213.101.002.004.002.004.209-.109zm-1.21-.759zm-.933.223-.068-.225.069.225zm-.82-.599h-.235.235zm0-3.967h.235v-.235h-.235v.235zm-11.368 0v-.235h-.235v.235h.235zm0 11.371h-.235v.235h.235v-.235zm4.569.808-.224-.072.224.072zm-.193.605zm1.887 1.535.104.211-.105-.211zm.741-1.219-.235.013.235-.014zm-.224-.904zm.591-.825v-.235h-.001l.001.235zm3.305 0 .001-.235h-.001v.235zM13.456.674a.453.453 0 0 1 .192.193.68.68 0 0 1 .055.306l.471.005a1.144 1.144 0 0 0-.102-.518.92.92 0 0 0-.379-.394l-.235.407zm.246.499c-.013 1.125-.005 2.252-.005 3.369h.471c0-1.121-.008-2.241.005-3.363l-.471-.005zm-.005 3.369v.366h.471v-.366h-.471zm.285.595c.878-.191 1.617-.036 2.215.586l.339-.326c-.735-.765-1.653-.937-2.654-.72l.1.46zm2.218.589c.202.203.359.447.46.716l.44-.166a2.498 2.498 0 0 0-.567-.881l-.334.332zm.46.716c.101.268.144.555.127.841l.47.029a2.503 2.503 0 0 0-.156-1.036l-.44.166zm.127.849c-.009.329-.096.65-.253.939l.413.226c.193-.354.3-.748.311-1.151l-.47-.013zm-.254.939a2.08 2.08 0 0 1-.653.721l.265.389c.333-.227.607-.53.801-.884l-.413-.226zm-.657.723c-.555.396-1.178.47-1.892.308l-.104.459c.811.184 1.58.108 2.269-.384l-.273-.383zm-2.179.537v.386h.471V9.49h-.471zm0 .387V13.461h.471V9.877h-.471zm0 3.397c0 .217-.044.303-.083.342s-.127.083-.344.084l.001.471c.26 0 .504-.049.676-.221s.221-.416.221-.675h-.471zm-.427.426H9.686v.471H13.27V13.7zm-3.426 0h-.355v.471h.355V13.7zm-.585.287c.195.855.045 1.571-.536 2.166l.337.329c.712-.729.882-1.618.658-2.599l-.459.105zm-.538 2.168a2.076 2.076 0 0 1-.728.492l.175.437c.338-.135.642-.341.894-.604l-.34-.325zm-.728.492c-.275.11-.571.16-.867.146l-.022.47c.363.017.726-.044 1.064-.179l-.175-.437zm-.872.146a2.154 2.154 0 0 1-1.549-.751c-.401-.469-.63-1.159-.441-2.058l-.46-.097c-.218 1.036.043 1.876.543 2.461a2.625 2.625 0 0 0 1.894.915l.013-.47zM4.901 13.7h-.329v.471h.329V13.7zm-.329 0c-1.13 0-2.266-.008-3.399.005l.005.471c1.13-.013 2.259-.005 3.393-.005V13.7zm-3.396.005a.701.701 0 0 1-.309-.056.435.435 0 0 1-.192-.19l-.407.235c.1.172.23.298.394.378.16.078.336.103.515.103v-.471zm-.47-.129V.47H.235v13.106h.471zM.471.706h13.103V.235H.471v.471zm12.663 12.193v-.385h-.471v.385h.471zm0-.384V8.931h-.471V12.515h.471zm0-3.7c0-.171.056-.254.107-.291.052-.038.152-.066.317-.016l.135-.451c-.259-.078-.523-.063-.728.086-.207.15-.301.397-.301.672h.471zm.423-.307c.206.062.466.159.704.218l.112-.457c-.228-.056-.422-.133-.679-.211l-.136.45zm.705.218c.307.074.604.071.879-.019s.516-.264.716-.507l-.363-.3c-.152.184-.32.3-.5.359s-.386.066-.622.009l-.111.457zm1.589-.518c.203-.226.333-.508.372-.81l-.467-.06c-.026.206-.115.4-.254.554l.35.315zm.371-.81a1.496 1.496 0 0 0-.156-.877l-.418.217c.096.185.133.394.107.601l.467.06zm-.152-.87c-.272-.573-.767-.927-1.434-.894l.023.47c.453-.022.784.201.986.626l.425-.202zm-1.434-.893c-.352.017-.705.148-.99.234l.136.45c.327-.099.6-.2.877-.214l-.023-.47zm-.991.233c-.244.074-.357.043-.404.008-.046-.033-.111-.127-.111-.382l-.471.001c0 .31.077.597.306.763.228.165.524.15.817.061l-.137-.45zm-.515-.374V1.91h-.471V5.494h.471zm0-3.638v-.329h-.471v.329h.471zm-.236-.564H1.526v.471h11.368v-.471zm-11.603.235v11.371h.471V1.527h-.471zm.235 11.606h.351v-.471h-.351v.471zm.351 0H5.461v-.471H1.877v.471zm3.639 0c.235 0 .328.064.362.112.035.049.066.161-.007.388l.448.144c.093-.288.103-.58-.058-.806-.162-.227-.442-.309-.745-.309v.471zm.355.501c-.057.177-.149.408-.198.625l.459.105c.044-.193.114-.358.187-.586l-.448-.144zm-.198.625c-.14.615.015 1.181.522 1.596l.299-.364c-.355-.291-.467-.668-.362-1.128l-.459-.105zm.522 1.596c.499.41 1.103.497 1.699.202l-.209-.422c-.423.21-.829.154-1.192-.144l-.299.364zm1.699.202c.568-.282.909-.783.871-1.443l-.47.027c.026.45-.19.786-.611.995l.209.421zm.871-1.443c-.019-.342-.149-.684-.234-.96l-.45.138c.099.322.199.581.214.849l.47-.027zm-.234-.96c-.076-.246-.045-.361-.01-.41.032-.046.124-.111.377-.112l-.001-.471c-.309.001-.595.079-.759.31-.162.229-.146.526-.055.82l.45-.138zm.366-.521H12.064v-.471H8.897v.471zm3.304 0 .697.002.001-.471-.697-.002-.001.471z"/>
            <path d="M18.067 18.067c0-1.36-.004-2.674 0-3.986a.919.919 0 0 1 .114-.456c.122-.2.332-.252.56-.182s.459.154.692.219a1.353 1.353 0 0 0 1.585-.683 1.341 1.341 0 0 0-1.585-1.889c-.223.063-.439.153-.662.216-.389.109-.702-.109-.704-.519a466.349 466.349 0 0 1 0-4.581c0-.35.196-.54.542-.567.1-.008.201 0 .302 0h11.831c.647 0 .788.139.788.778v24.354c0 .619-.143.76-.772.76H6.406c-.62 0-.765-.145-.765-.771V18.842c0-.624.148-.774.764-.774h4.246c.583 0 .789.285.614.836-.124.392-.307.769-.2 1.205.181.737.889 1.195 1.608 1.025a1.34 1.34 0 0 0 .858-.626 1.353 1.353 0 0 0 .138-1.053c-.053-.195-.126-.384-.188-.576-.164-.511.048-.81.583-.811h3.639l.365-.001zM6.704 19.118v11.355h11.364V26.45c0-.48.306-.7.759-.562.221.067.438.156.664.208.538.125 1.009-.011 1.362-.442a1.267 1.267 0 0 0 .173-1.447c-.244-.497-.665-.768-1.22-.74-.285.014-.57.116-.847.203-.617.195-.889.01-.889-.628v-3.608c0-.106-.009-.213-.015-.321h-3.367c.127 1.928-.751 3.088-2.323 3.082s-2.438-1.174-2.299-3.078H6.704zm23.779-.018h-4.067c-.443 0-.659-.304-.532-.726.069-.233.157-.459.217-.692a1.344 1.344 0 0 0-.719-1.537 1.338 1.338 0 0 0-1.65.4 1.339 1.339 0 0 0-.224 1.162c.053.195.124.385.186.577.173.534-.03.819-.595.819H19.12v3.409c.751-.173 1.448-.099 2.075.346a2.306 2.306 0 0 1 1.002 1.815 2.272 2.272 0 0 1-.634 1.743c-.669.712-1.506.881-2.44.679v3.383h11.361V19.1zm-11.369-9.03c1.96-.432 3.103 1.028 3.104 2.247.009.33-.052.657-.178.962s-.316.579-.557.804c-.671.637-1.469.792-2.364.577v3.386h3.382c-.232-1.149.06-2.093 1.065-2.72.818-.511 1.683-.502 2.492.015.986.629 1.271 1.568 1.037 2.699h3.378V6.699h-11.36v3.371z"/>
            <path d="m18.067 18.067.001.235.235-.001v-.235h-.235zm0-3.987.235.001v-.004l-.235.003zm.115-.456-.201-.123-.003.004-.003.005.206.114zm1.251.036.068-.225-.004-.001-.063.227zm1.728-1.286zm-1.728-1.286.064.226.004-.001-.068-.225zm-.662.217.063.227h.001l-.064-.226zm-.704-.519zm0-4.581.235.001v-.001h-.235zm.542-.567zm-7.344 13.264zm-.2 1.205zm1.608 1.025-.052-.229h-.002l.054.229zm.996-1.678-.227.062.001.002.226-.064zm-.189-.576-.224.072v.001l.224-.073zm.584-.811v-.235.235zm3.639 0v.235h.001l-.001-.235zM6.704 19.118v-.235h-.235v.235h.235zm0 11.355h-.235v.235h.235v-.235zm11.363 0v.235h.235v-.235h-.235zm.759-4.586-.069.225.069-.225zm.664.209.053-.229h-.001l-.053.229zm1.363-.442-.175-.157-.003.004-.003.004.182.149zm.172-1.447-.211.104.002.004.002.004.207-.111zm-1.219-.74.011.235-.012-.235zm-.847.203-.071-.224.071.224zm-.904-4.557.235-.011-.011-.224h-.224v.235zm-3.367 0v-.235h-.251l.017.251.235-.015zm-4.623.005.235.017.018-.252h-.253v.235zm20.418-.018h.235v-.235h-.235v.235zm-4.6-.726.225.067-.226-.067zm.217-.691.228.058v-.001l-.228-.058zm-2.593.024.227-.062-.227.062zm.186.576zm-.595.82v.235-.235zm-3.979 0v-.235h-.235v.235h.235zm0 3.409h-.235v.296l.288-.066-.053-.229zm2.075.346-.136.192.004.003.133-.194zm1.003 1.815-.235.009v.008l.235-.017zm-.635 1.743-.169-.164-.002.003.171.161zm-2.44.679.05-.23-.285-.062v.292h.235zm0 3.383h-.235v.235h.235v-.235zm11.361 0v.235h.235v-.235h-.235zM19.114 10.07h-.235v.293l.286-.063-.051-.23zm3.104 2.248h-.235v.006l.235-.007zm-.734 1.765-.161-.171-.001.001.162.171zm-2.365.578.055-.229-.29-.07v.298h.235zm0 3.386h-.235v.235h.235v-.235zm3.383 0v.235h.287L22.732 18l-.231.047zm1.065-2.721.125.2-.125-.2zm2.492.015-.127.198.127-.198zm1.037 2.7-.23-.048-.058.283h.289v-.235zm3.378 0v.235h.235v-.235h-.235zm0-11.342h.235v-.235h-.235v.235zm-11.36 0v-.235h-.235v.235h.235zm-.811 11.368c0-1.361-.004-2.673 0-3.986l-.471-.002c-.004 1.313 0 2.629 0 3.987h.471zm0-3.99a.684.684 0 0 1 .085-.34l-.412-.227a1.147 1.147 0 0 0-.143.573l.471-.006zm.079-.331a.194.194 0 0 1 .108-.09.308.308 0 0 1 .182.01l.138-.45a.777.777 0 0 0-.458-.01.655.655 0 0 0-.372.295l.402.245zm.291-.08c.208.064.465.156.697.22l.126-.453c-.233-.065-.438-.141-.686-.217l-.138.45zm.693.219c.236.071.484.085.727.043l-.081-.463a1.1 1.1 0 0 1-.51-.03l-.135.451zm.726.043c.242-.043.471-.141.668-.288l-.281-.378a1.11 1.11 0 0 1-.469.202l.081.463zm.669-.288c.197-.147.358-.338.468-.557l-.421-.211c-.077.154-.19.288-.328.391l.281.378zm.468-.558c.11-.22.168-.462.168-.708h-.471c0 .173-.04.343-.118.497l.421.211zm.168-.708c0-.246-.058-.488-.168-.708l-.421.211c.078.154.118.324.118.497h.471zm-.168-.708a1.566 1.566 0 0 0-.468-.557l-.281.378c.138.103.251.237.328.391l.421-.211zm-.468-.558a1.578 1.578 0 0 0-.668-.288l-.081.463c.17.03.331.099.469.202l.281-.378zm-.669-.288a1.57 1.57 0 0 0-.727.043l.135.451a1.1 1.1 0 0 1 .51-.03l.081-.463zm-.723.042a6.05 6.05 0 0 0-.344.112 5.09 5.09 0 0 1-.318.104l.128.453a6.05 6.05 0 0 0 .344-.112 5.09 5.09 0 0 1 .318-.104l-.128-.453zm-.661.216c-.14.039-.238.013-.296-.029-.056-.041-.109-.121-.11-.265l-.471.003c.002.266.107.5.305.643.196.142.449.171.699.101l-.127-.453zm-.406-.293a465.941 465.941 0 0 1 0-4.579l-.471-.002a466.756 466.756 0 0 0 0 4.583l.471-.003zm0-4.58c0-.131.036-.201.075-.24.041-.042.115-.081.25-.092l-.036-.469a.835.835 0 0 0-.551.233c-.146.149-.208.35-.208.569h.471zm.325-.333c.09-.007.157.001.284.001v-.471c-.075 0-.21-.008-.321.001l.036.469zm.284.001h11.831v-.471H18.911v.471zm11.831 0c.156 0 .266.009.346.026.077.017.109.039.126.055.038.038.081.134.081.461h.471c0-.312-.027-.605-.221-.796a.705.705 0 0 0-.355-.18 2.092 2.092 0 0 0-.447-.037v.471zm.553.543V30.77h.471V6.416h-.471zm0 24.353c0 .315-.043.408-.08.444-.038.038-.136.08-.457.08v.471c.308 0 .596-.028.787-.215.192-.189.221-.476.221-.78h-.471zm-.537.525H6.406v.471h24.352v-.471zm-24.352 0c-.315 0-.41-.043-.448-.081s-.082-.136-.082-.454h-.471c0 .308.029.596.218.786s.477.22.782.22v-.471zm-.53-.536V18.84h-.471v11.918h.471zm0-11.918c0-.316.044-.415.083-.455.038-.039.134-.083.446-.083v-.471c-.305 0-.591.031-.781.223-.188.191-.219.478-.219.786h.471zm.529-.538h4.246v-.471H6.405v.471zm4.246 0c.266 0 .366.067.401.115s.068.163-.012.414l.448.143c.095-.3.113-.603-.056-.835s-.464-.308-.781-.308v.471zm.39.529c-.055.173-.141.395-.191.602a1.515 1.515 0 0 0-.013.73l.457-.112a1.043 1.043 0 0 1 .013-.508c.046-.188.113-.351.182-.57l-.448-.143zm-.204 1.333c.21.853 1.036 1.4 1.89 1.198l-.108-.458c-.584.138-1.172-.231-1.325-.852l-.457.112zm1.888 1.198c.209-.048.406-.138.579-.264l-.277-.38c-.122.089-.26.152-.407.185l.105.459zm.58-.264a1.58 1.58 0 0 0 .428-.471l-.405-.24c-.077.13-.179.242-.301.331l.277.38zm.428-.471c.109-.184.18-.389.208-.602l-.467-.061c-.02.149-.069.293-.146.423l.405.24zm.208-.602a1.582 1.582 0 0 0-.046-.635l-.453.128c.041.145.052.297.032.446l.467.061zm-.045-.633c-.054-.2-.135-.413-.192-.587l-.448.145c.068.21.134.376.185.565l.454-.123zm-.192-.586c-.072-.223-.041-.336-.004-.388s.131-.116.363-.116l-.001-.471c-.304.001-.583.085-.745.312-.162.226-.155.518-.062.806l.448-.144zm.36-.503H17.648v-.471H14.064v.471zm3.639 0 .365-.001-.001-.471-.365.001.001.471zm-11.235.815v11.355h.471V19.118h-.471zm.236 11.59h11.364v-.471H6.704v.471zm11.599-.235v-.354h-.471v.354h.471zm0-.354V26.535h-.471V30.119h.471zm0-3.67c0-.193.06-.284.114-.323s.159-.069.341-.014l.137-.45c-.271-.083-.545-.072-.757.085s-.306.416-.306.702h.471zm.455-.336c.106.032.208.069.324.108.112.038.231.076.356.105l.105-.459a3.065 3.065 0 0 1-.311-.092c-.105-.035-.222-.077-.337-.112l-.137.45zm.679.212c.617.144 1.182-.016 1.598-.521l-.364-.299c-.292.355-.669.469-1.127.362l-.107.458zm1.591-.514c.206-.23.336-.518.372-.825l-.467-.056a1.035 1.035 0 0 1-.256.567l.351.314zm.372-.825a1.504 1.504 0 0 0-.168-.89l-.415.222c.1.187.14.401.115.612l.467.056zm-.163-.883c-.282-.575-.787-.904-1.443-.871l.023.47c.454-.023.791.189.997.609l.423-.207zm-1.443-.871c-.324.016-.645.131-.907.214l.142.449c.292-.092.541-.181.788-.193l-.023-.47zm-.906.214c-.298.094-.422.064-.47.03-.044-.031-.113-.129-.113-.434h-.471c0 .334.068.648.314.82.242.17.563.134.882.033l-.142-.449zm-.583-.404V19.458h-.471V23.042h.471zm0-3.608c0-.113-.01-.237-.015-.332l-.47.023c.006.122.014.21.014.309h.471zm-.25-.556h-3.367v.471h3.367v-.471zm-3.602.251c.061.929-.122 1.639-.477 2.109-.349.463-.887.725-1.61.723l-.002.471c.849.003 1.537-.312 1.988-.91.445-.59.637-1.425.571-2.423l-.47.031zm-2.088 2.831c-.723-.003-1.258-.269-1.604-.733-.351-.471-.529-1.176-.462-2.093L9.83 19.1c-.072.987.113 1.818.554 2.409.446.598 1.13.919 1.979.922l.002-.471zm-2.3-3.078H6.703v.471h3.362v-.471zm20.418-.017h-.368v.471h.368v-.471zm-.369 0H26.53v.471H30.114v-.471zm-3.698 0c-.168 0-.252-.056-.289-.108-.038-.053-.067-.153-.018-.315l-.451-.135c-.078.259-.061.522.088.727.149.206.396.302.67.302v-.471zm-.307-.424c.033-.112.071-.221.11-.339.038-.115.078-.237.11-.361l-.456-.117a5.061 5.061 0 0 1-.1.33c-.037.112-.078.232-.114.353l.451.134zm.219-.701a1.58 1.58 0 0 0 .014-.714l-.46.098c.035.165.032.337-.01.501l.456.115zm.014-.713a1.579 1.579 0 0 0-.303-.647l-.37.291c.105.133.177.288.212.454l.46-.098zm-.303-.647a1.574 1.574 0 0 0-.557-.447l-.204.424c.152.073.286.18.391.313l.37-.291zm-.556-.447a1.584 1.584 0 0 0-.697-.155l.004.471c.169-.002.336.036.489.109l.204-.424zm-.697-.155c-.241.002-.478.06-.694.168l.212.42a1.11 1.11 0 0 1 .487-.118l-.004-.471zm-.694.168a1.573 1.573 0 0 0-.548.457l.375.284c.102-.135.234-.245.385-.321l-.212-.42zm-.548.457a1.583 1.583 0 0 0-.291.652l.462.089a1.1 1.1 0 0 1 .204-.457l-.375-.284zm-.291.653c-.046.237-.036.481.027.713l.454-.124a1.097 1.097 0 0 1-.019-.5l-.462-.089zm.027.713c.055.201.131.409.189.588l.448-.145c-.067-.205-.132-.378-.183-.566l-.454.123zm.189.587c.078.241.046.353.012.399s-.129.112-.383.112l.001.471c.31 0 .598-.078.764-.307s.149-.527.054-.82l-.448.145zm-.371.512H19.514v.471H23.098v-.471zm-3.638 0h-.341v.471h.341v-.471zm-.576.235v3.409h.471v-3.409h-.471zm.288 3.638c.702-.162 1.326-.089 1.885.308l.273-.384c-.694-.493-1.463-.567-2.264-.383l.106.459zm1.889.311c.267.182.488.425.644.708l.412-.228a2.544 2.544 0 0 0-.791-.869l-.265.389zm.644.708c.156.283.244.599.256.922l.47-.018a2.54 2.54 0 0 0-.315-1.132l-.412.228zm.257.93c.02.286-.02.573-.118.842l.442.161c.121-.332.17-.685.145-1.037l-.469.034zm-.118.842a2.048 2.048 0 0 1-.451.721l.338.327c.245-.253.435-.556.555-.887l-.442-.161zm-.453.723c-.601.64-1.347.798-2.219.61l-.1.46c.997.216 1.924.037 2.661-.747l-.343-.322zm-2.504.84v3.383h.471v-3.383h-.471zm.235 3.618h11.361v-.471H19.122v.471zm11.596-.235V19.1h-.471v11.378h.471zM19.165 10.3c.91-.201 1.609.039 2.081.452.48.419.736 1.025.737 1.566h.471c-.001-.678-.316-1.413-.898-1.92-.589-.514-1.441-.788-2.492-.557l.101.46zm2.818 2.024c.008.296-.046.591-.16.865l.434.181c.139-.335.206-.696.196-1.059l-.47.013zm-.16.865c-.114.274-.284.52-.5.723l.322.343c.264-.249.473-.55.613-.885l-.434-.181zm-.502.724c-.604.574-1.318.718-2.147.519l-.11.458c.96.23 1.844.065 2.581-.636l-.324-.341zm-2.437.748v3.386h.471v-3.386h-.471zm.235 3.621h3.382v-.471h-3.382v.471zM22.732 18c-.11-.544-.092-1.021.059-1.427.149-.403.436-.757.9-1.047l-.249-.399c-.541.338-.903.77-1.092 1.283-.189.51-.2 1.079-.079 1.684l.461-.093zm.959-2.474c.74-.462 1.508-.455 2.241.013l.253-.397c-.885-.565-1.848-.575-2.743-.016l.249.399zm2.241.014c.455.29.736.643.881 1.043.147.403.162.875.052 1.41l.461.095c.123-.596.113-1.16-.071-1.666-.185-.509-.539-.94-1.071-1.279l-.253.397zm1.164 2.736h3.378v-.471h-3.378v.471zm3.613-.235V6.7h-.471v11.341h.471zm-.235-11.577h-11.36v.471h11.36v-.471zm-11.595.235v3.371h.471V6.699h-.471z"/>
        </symbol>
        <symbol id="icon-idea" viewBox="0 0 32 32">
            <path d="M13.088 31.529c-.132-.046-.264-.088-.394-.138-.829-.317-1.34-1.051-1.356-1.968a62.077 62.077 0 0 1 0-1.881c0-.166-.046-.243-.207-.303-.742-.282-1.193-.829-1.309-1.608-.121-.803.158-1.476.818-1.962.16-.118.149-.235.126-.389-.218-1.463-.82-2.76-1.72-3.921-.975-1.257-1.828-2.58-2.482-4.04-1.997-4.457-.707-9.722 3.164-12.699a10.112 10.112 0 0 1 5.46-2.101c.07-.011.139-.027.206-.048h1.153c.695.121 1.401.192 2.081.37 2.34.613 4.229 1.922 5.676 3.854 1.146 1.53 1.802 3.264 1.993 5.162a10.633 10.633 0 0 1-.864 5.441 17.412 17.412 0 0 1-2.295 3.799c-.876 1.106-1.541 2.317-1.829 3.714a.948.948 0 0 1-.02.089c-.127.396-.041.667.298.976 1.083.99.708 2.8-.661 3.341-.206.081-.268.175-.266.387.007.676.032 1.356-.027 2.029-.084.971-.65 1.577-1.585 1.84a1.34 1.34 0 0 0-.136.056h-5.824zm7.073-8.298c.085-.384.157-.749.249-1.11.353-1.375 1.056-2.569 1.919-3.68a17.29 17.29 0 0 0 1.774-2.742c1.471-2.883 1.695-5.831.321-8.781-1.464-3.145-4.004-4.965-7.447-5.338-3.286-.359-6.076.779-8.161 3.348-2.251 2.773-2.702 5.927-1.56 9.297.551 1.625 1.492 3.033 2.517 4.397.52.693.968 1.439 1.335 2.224.306.659.435 1.4.653 2.101.033.107.121.28.185.283.652.021 1.305.013 1.971.013v-8.276c-.425 0-.838.005-1.25 0a4.473 4.473 0 0 1-.664-.046c-1.517-.255-2.209-2.097-1.25-3.298.508-.636 1.187-.811 1.965-.798 1.392.024 2.244.866 2.248 2.258v.836h2.066c0-.335-.008-.657 0-.977.027-.886.425-1.544 1.231-1.931.485-.231 1.005-.198 1.517-.166a2.038 2.038 0 0 1 1.789 1.377 2.063 2.063 0 0 1-.595 2.228c-.425.369-.928.517-1.482.516h-1.408v8.265h2.076zm-4.17 1.053h-2.396c-.607 0-1.213-.013-1.82.017-.557.027-.948.477-.944 1.025.005.626.471 1.031 1.205 1.031 2.638.002 5.276.002 7.915 0 .141.001.282-.012.421-.039a1.004 1.004 0 0 0 .794-.947c.025-.644-.425-1.08-1.142-1.083-1.344-.009-2.689-.004-4.032-.004zm1.02-1.054v-8.239h-2.027v8.239h2.027zm-2.77 7.232c.004.008.009.024.013.024 1.476 0 2.952.016 4.428-.004a.909.909 0 0 0 .904-.832c.046-.741.012-1.487.012-2.231-.247-.014-4.821 2.584-5.357 3.043zm-1.629-.285 4.701-2.763h-4.94v.346c.004.607-.007 1.213.024 1.814.01.196.134.382.218.603h-.002zm1.32-16.249c0-.214-.011-.394 0-.573.077-1.086-.36-1.583-1.563-1.492-.584.044-1.024.46-1.031 1.019a1.031 1.031 0 0 0 .976 1.041c.524.027 1.049.005 1.62.005h-.002zm4.137-.009c.585 0 1.14.033 1.689-.009.534-.042.919-.53.9-1.045-.02-.55-.448-.971-1.018-.998a6.628 6.628 0 0 0-.546 0c-.576.023-.991.416-1.023.989-.016.341-.001.684-.001 1.063h-.002z"/>
            <path d="m13.088 31.529-.077.222.037.013h.04v-.235zm-.393-.137.084-.22-.084.22zm-1.356-1.969.235-.004-.235.004zm0-1.88.235.003v-.003h-.235zm-.208-.304-.084.22h.001l.083-.22zm-1.309-1.607.233-.035v-.001l-.233.035zm.818-1.963.14.189-.14-.189zm.126-.389.233-.034v-.001l-.233.035zm-1.72-3.921zm-2.482-4.04zM9.728 2.62l.143.187.001-.001-.144-.186zM15.187.518l.017.235.009-.001.009-.001-.036-.233zm.207-.047V.236h-.036l-.034.011.07.225zm1.152 0 .04-.232-.02-.004h-.02V.47zm2.081.37-.06.228.06-.228zm5.676 3.854zm1.993 5.162-.234.024v.001l.234-.025zm-.864 5.441-.215-.096v.001l.215.095zm-2.295 3.799-.184-.146.184.146zm-1.829 3.714-.23-.047-.001.004-.001.004.232.04zm-.02.089.224.072.001-.004.001-.004-.227-.064zm.298.976.159-.174-.158.174zm-.661 3.34.086.219-.087-.219zm-.266.387-.235.002.235-.002zm-.027 2.03zm-1.584 1.84-.064-.227-.007.002-.007.002.078.222zm-.136.056v.235h.054l.048-.023-.102-.212zm1.249-8.298v.235h.189l.041-.184-.23-.051zm.249-1.109zm1.918-3.68-.185-.146-.001.002.186.144zm1.774-2.742.209.109.001-.002-.21-.107zm.321-8.78zm-7.447-5.339-.026.234.025-.234zM8.815 4.929zm-1.559 9.297zm2.517 4.398.188-.141-.188.141zm1.335 2.224.213-.099-.213.1zm.653 2.101.225-.069v-.001l-.225.07zm.185.283-.009.235h.001l.008-.235zm1.97.013v.235h.235v-.235h-.235zm0-8.276h.235v-.235h-.235v.235zm-1.249 0 .003-.235h-.004l.001.235zm-.664-.046-.039.232.005.001.034-.233zm-1.25-3.299zm1.965-.797.004-.235-.004.235zm2.248 2.258h.235v-.001l-.235.001zm0 .836h-.235v.235h.235v-.235zm2.065 0v.235h.235v-.235h-.235zm0-.977-.235-.007v.001l.235.006zm1.232-1.931-.101-.212.102.212zm1.516-.166.017-.235h-.002l-.014.235zm1.79 1.376-.223.076.223-.076zm-.595 2.228.154.178h.001l-.155-.177zm-1.482.516.001-.235h-.001v.235zm-1.407 0v-.235h-.235v.235h.235zm0 8.264h-.235v.235h.235v-.235zm-2.094 1.053v-.235.235zm-4.215.017.011.235-.011-.235zm-.944 1.025zm1.205 1.031v-.235.235zm7.914 0 .002-.235h-.003v.235zm.421-.038.045.231.004-.001-.049-.23zm.794-.948-.235-.009v.001l.235.008zm-1.143-1.083-.002.235.001-.235zm-3.012-1.058v.235h.235v-.235h-.235zm0-8.239h.235v-.235h-.235v.235zm-2.027 0v-.235h-.235v.235h.235zm0 8.239h-.235v.235h.235v-.235zm-.743 7.232-.153-.179-.14.12.082.164.21-.105zm4.441.019v-.235h-.003l.003.235zm.904-.832.235.019v-.004l-.235-.015zm.012-2.231h.235v-.222l-.222-.013-.013.235zm-6.986 2.759-.119-.203-.745.438h.865v-.235zm4.701-2.763.119.203.745-.438h-.865v.235zm-4.94 0v-.235h-.235v.235h.235zm0 .346h-.235v.002l.235-.002zm.023 1.814-.235.012.235-.012zm.218.603v.235h.34l-.12-.319-.22.083zm1.318-16.249h-.235v.235h.235v-.235zm0-.573-.235-.017v.002l.235.014zm-1.563-1.493-.018-.235.018.235zm-1.031 1.019-.235-.003v.001l.235.003zm.976 1.041-.013.235h.001l.012-.235zm7.444-.012.018.235-.018-.235zm.9-1.044zm-1.017-.999.011-.235h-.001l-.01.235zm-.546 0zm-1.024.989-.235-.013v.002l.235.011zm0 1.063v.235h.235v-.235h-.235zm-4.906 17.388c-.138-.048-.261-.087-.386-.135l-.168.439c.135.052.276.097.401.14l.154-.445zm-.386-.135c-.736-.281-1.19-.928-1.205-1.753l-.471.008c.017 1.011.586 1.832 1.507 2.184l.168-.44zm-1.205-1.753a61.55 61.55 0 0 1 0-1.873l-.471-.006a56.584 56.584 0 0 0 0 1.888l.471-.009zm0-1.876c0-.1-.013-.217-.083-.322a.547.547 0 0 0-.277-.202l-.166.441c.061.023.059.034.051.023-.007-.01.004-.006.004.061h.471zm-.359-.524c-.665-.253-1.057-.73-1.16-1.422l-.465.069c.129.866.639 1.482 1.458 1.793l.167-.44zm-1.16-1.422c-.108-.716.135-1.303.725-1.738l-.279-.379c-.73.537-1.045 1.297-.911 2.187l.465-.07zm.725-1.738a.536.536 0 0 0 .221-.318c.026-.113.009-.223-.002-.295l-.466.068a.826.826 0 0 1 .009.122c-.001.003-.001.005-.004.009-.004.005-.013.017-.037.035l.279.379zm.219-.614c-.224-1.508-.845-2.842-1.767-4.031l-.372.288c.879 1.133 1.462 2.393 1.674 3.812l.465-.069zm-1.767-4.03c-.967-1.246-1.808-2.553-2.453-3.992l-.429.192c.664 1.481 1.527 2.821 2.511 4.088l.372-.289zm-2.454-3.992c-1.953-4.359-.691-9.507 3.093-12.416l-.287-.373c-3.959 3.044-5.276 8.427-3.235 12.982l.429-.192zM9.872 2.806A9.885 9.885 0 0 1 15.205.754L15.17.285a10.357 10.357 0 0 0-5.587 2.15l.289.372zM15.223.751c.082-.013.162-.031.241-.056l-.141-.449a1.13 1.13 0 0 1-.172.04l.072.465zm.171-.045h1.153V.235h-1.153v.471zm1.112-.004c.719.125 1.394.191 2.061.366l.119-.455c-.691-.181-1.429-.257-2.1-.374l-.081.464zm2.061.366c2.287.599 4.131 1.876 5.547 3.768l.377-.282C23.013 2.581 21.08 1.24 18.686.613l-.119.455zm5.548 3.768c1.12 1.494 1.761 3.188 1.948 5.044l.468-.047c-.195-1.938-.866-3.714-2.039-5.279l-.377.282zm1.947 5.045a10.399 10.399 0 0 1-.845 5.321l.43.192a10.871 10.871 0 0 0 .884-5.562l-.468.049zm-.845 5.322a17.133 17.133 0 0 1-2.264 3.748l.368.293a17.619 17.619 0 0 0 2.326-3.851l-.431-.19zm-2.264 3.748c-.892 1.126-1.578 2.37-1.875 3.812l.461.095c.278-1.351.923-2.529 1.783-3.615l-.369-.292zm-1.877 3.82a.683.683 0 0 1-.015.065l.453.127c.01-.037.019-.074.025-.112l-.464-.08zm-.012.057c-.073.228-.093.446-.027.662.065.212.205.391.39.56l.317-.348c-.153-.14-.227-.251-.257-.351-.03-.096-.029-.212.025-.379l-.448-.144zm.363 1.221c.947.866.628 2.467-.588 2.948l.173.438c1.521-.601 1.951-2.619.733-3.733l-.318.347zm-.588 2.948c-.12.047-.239.113-.319.231s-.097.252-.096.377l.471-.004c-.001-.087.013-.106.014-.108s.017-.024.103-.058l-.173-.438zm-.415.609c.007.685.031 1.348-.026 2.007l.469.041c.06-.687.034-1.384.028-2.052l-.471.005zm-.026 2.006c-.038.442-.185.787-.416 1.051-.232.264-.564.462-.998.584l.128.453c.501-.141.919-.379 1.224-.726.306-.349.485-.792.531-1.32l-.469-.041zm-1.428 1.639a1.318 1.318 0 0 0-.16.067l.205.424a1.01 1.01 0 0 1 .112-.046l-.156-.444zm-.058.043h-5.824v.471h5.824v-.471zm1.479-8.011c.087-.393.156-.746.247-1.102l-.456-.117c-.093.365-.167.741-.25 1.117l.459.102zm.247-1.102c.342-1.333 1.025-2.498 1.877-3.594l-.372-.289c-.875 1.126-1.597 2.349-1.961 3.766l.456.117zm1.875-3.593a17.5 17.5 0 0 0 1.798-2.779l-.418-.217a16.985 16.985 0 0 1-1.75 2.705l.369.292zm1.799-2.781c1.499-2.938 1.733-5.963.325-8.987l-.427.199c1.339 2.876 1.126 5.747-.317 8.575l.419.214zm.324-8.987c-1.499-3.22-4.11-5.09-7.635-5.473l-.051.468c3.361.365 5.829 2.133 7.259 5.204l.427-.199zm-7.634-5.473c-3.365-.367-6.233.802-8.369 3.434l.365.297c2.034-2.507 4.745-3.612 7.953-3.262l.051-.468zM8.633 4.781c-2.305 2.84-2.767 6.08-1.6 9.521l.446-.151c-1.119-3.3-.676-6.368 1.519-9.073l-.365-.297zm-1.6 9.521c.563 1.661 1.523 3.094 2.552 4.463l.376-.283c-1.022-1.359-1.944-2.744-2.483-4.332l-.446.151zm2.552 4.463c.511.68.95 1.412 1.31 2.183l.426-.199c-.374-.8-.829-1.56-1.36-2.266l-.376.283zm1.309 2.182c.145.311.249.646.346.998.095.345.185.719.295 1.074l.449-.14c-.108-.346-.19-.693-.291-1.059a6.919 6.919 0 0 0-.373-1.072l-.427.198zm.641 2.071c.022.072.06.159.104.233a.661.661 0 0 0 .086.115.312.312 0 0 0 .211.101l.018-.47c.044.002.074.017.088.025s.021.015.021.016l-.005-.007-.014-.022a.673.673 0 0 1-.058-.128l-.45.137zm.403.449c.657.021 1.317.013 1.979.013v-.471c-.67 0-1.316.008-1.963-.013l-.015.47zm2.214-.222v-8.276h-.471v8.276h.471zm-.236-8.512c-.429 0-.837.005-1.247 0l-.006.471c.413.005.832 0 1.252 0v-.471zm-1.25 0a4.262 4.262 0 0 1-.629-.044l-.067.466c.231.033.465.05.699.049l-.002-.471zm-.624-.042c-1.337-.225-1.953-1.856-1.105-2.919l-.368-.294c-1.069 1.339-.302 3.392 1.395 3.677l.078-.464zm-1.105-2.92c.445-.558 1.038-.722 1.777-.709l.008-.471c-.818-.014-1.582.171-2.153.886l.368.294zm1.777-.709c.649.011 1.147.212 1.482.547s.533.829.534 1.477l.471-.001c-.002-.745-.232-1.368-.672-1.808s-1.064-.672-1.807-.685l-.008.47zm2.017 2.023V14.109h.471V13.085h-.471zm.235 1.071h2.066v-.471h-2.066v.471zm2.301-.235c0-.344-.008-.654 0-.971l-.47-.013c-.009.324 0 .657 0 .984h.471zm0-.97c.013-.409.11-.753.287-1.035s.442-.514.811-.691l-.203-.424c-.438.21-.775.499-1.006.865s-.345.794-.359 1.271l.47.014zm1.097-1.726c.421-.201.878-.176 1.401-.144l.029-.47c-.501-.031-1.083-.073-1.632.189l.202.425zm1.399-.143c.354.025.694.154.975.37l.287-.373a2.282 2.282 0 0 0-1.229-.467l-.033.469zm.975.37c.282.217.493.511.608.848l.445-.152a2.277 2.277 0 0 0-.767-1.068l-.287.373zm.608.848c.118.344.131.716.038 1.068l.455.121a2.3 2.3 0 0 0-.047-1.342l-.445.153zm.038 1.067c-.094.352-.29.667-.564.907l.31.354c.345-.301.591-.698.709-1.14l-.455-.121zm-.564.907c-.373.324-.818.459-1.327.458l-.001.471c.599.001 1.161-.16 1.637-.573l-.309-.355zm-1.328.458H17.956v.471H19.492v-.471zm-1.643.235v8.265h.471v-8.265h-.471zm.236 8.5h2.076v-.471h-2.076v.471zm-2.094.582H13.431v.471H15.991v-.471zm-2.395 0c-.6 0-1.217-.013-1.831.017l.023.47c.599-.029 1.195-.017 1.808-.017v-.471zm-1.832.017c-.693.033-1.173.597-1.168 1.262l.471-.004c-.003-.432.298-.768.72-.788l-.023-.47zm-1.167 1.262c.003.375.146.699.411.927.261.225.62.338 1.029.338v-.471c-.325 0-.566-.09-.722-.224a.733.733 0 0 1-.247-.574l-.471.004zm1.439 1.265c2.638.002 5.276.002 7.915 0v-.471c-2.638.002-5.276.002-7.914 0v.471zm7.913 0c.157.002.314-.013.469-.043l-.091-.462a1.798 1.798 0 0 1-.373.034l-.005.471zm.472-.044a1.24 1.24 0 0 0 .691-.416l-.361-.302a.771.771 0 0 1-.429.258l.098.46zm.691-.416a1.24 1.24 0 0 0 .288-.754l-.47-.016a.77.77 0 0 1-.179.467l.361.302zm.289-.753c.015-.381-.112-.719-.365-.961-.251-.24-.605-.365-1.011-.366l-.002.471c.312.001.541.096.688.236.145.138.23.34.22.602l.47.018zm-1.376-1.327c-1.345-.009-2.691-.004-4.034-.004v.471c1.345.001 2.688-.004 4.031.004l.003-.471zm-2.778-.823v-8.239h-.471v8.239h.471zm-.236-8.475h-2.027v.471h2.027v-.471zm-2.262.236v8.239h.471v-8.239h-.471zm.235 8.474h2.027v-.471h-2.027v.471zm-.953 7.102-.004-.009.001.001.001.003a.26.26 0 0 0 .028.054.238.238 0 0 0 .198.105v-.471a.231.231 0 0 1 .191.1l.014.023a.02.02 0 0 1 .004.009l-.001-.002a.178.178 0 0 0-.011-.024l-.421.21zm.223.154c1.472 0 2.953.016 4.431-.004l-.006-.471c-1.474.02-2.946.004-4.425.004v.471zm4.428-.005c.287 0 .563-.107.774-.302l-.319-.346a.671.671 0 0 1-.455.177l-.001.471zm.774-.301c.211-.194.341-.461.364-.747l-.469-.038a.672.672 0 0 1-.214.439l.319.346zm.365-.751c.047-.75.013-1.516.013-2.245h-.471c0 .758.034 1.485-.012 2.216l.47.029zm-.21-2.481c-.05-.003-.095.01-.113.015a2.73 2.73 0 0 0-.279.116c-.154.073-.359.177-.596.302a78.629 78.629 0 0 0-3.475 1.974c-.501.304-.908.563-1.06.694l.306.357c.116-.099.483-.337.997-.649a76.929 76.929 0 0 1 3.451-1.961c.235-.124.432-.224.577-.292a3.63 3.63 0 0 1 .207-.089c.014-.004-.007.004-.042.002l.027-.47zm-6.88 3.197 4.701-2.763-.238-.406-4.701 2.763.239.406zm4.582-3.201h-4.94v.471h4.94v-.471zm-5.176.235V27.926h.471V27.414h-.471zm0 .348c.004.598-.007 1.217.024 1.825l.47-.024c-.031-.594-.019-1.189-.023-1.804l-.471.003zm.024 1.825c.007.141.055.268.1.373.051.119.092.195.132.301l.44-.166c-.044-.115-.107-.243-.141-.321a.632.632 0 0 1-.062-.211l-.47.025zm.453.355h-.002v.471h.002v-.471zm1.553-16.014c0-.234-.011-.388 0-.559l-.47-.029c-.011.187 0 .393 0 .588h.471zm-.001-.557c.04-.566-.047-1.049-.37-1.371s-.82-.42-1.445-.373l.035.469c.578-.043.9.061 1.078.237s.27.484.233 1.004l.469.033zm-1.815-1.743c-.686.052-1.24.552-1.249 1.251l.471.006c.005-.419.333-.751.814-.788l-.036-.469zm-1.249 1.251a1.26 1.26 0 0 0 .343.88l.343-.322a.8.8 0 0 1-.215-.553l-.471-.005zm.343.88c.223.238.53.381.856.398l.025-.47a.798.798 0 0 1-.538-.25l-.343.322zm.857.398c.532.027 1.074.006 1.632.006v-.471c-.584 0-1.091.021-1.608-.005l-.024.47zm1.631-.464h-.002v.471h.002v-.471zm4.136.462c.566 0 1.147.034 1.708-.01l-.036-.469c-.537.042-1.067.008-1.671.008v.471zm1.708-.01c.672-.053 1.14-.661 1.117-1.288l-.47.017c.015.402-.288.77-.683.801l.037.469zm1.117-1.288c-.025-.679-.557-1.191-1.242-1.225l-.023.47c.454.022.779.351.794.772l.47-.017zm-1.243-1.225a6.677 6.677 0 0 0-.566 0l.019.47c.176-.007.352-.008.526 0l.02-.47zm-.566 0c-.692.028-1.209.511-1.249 1.21l.47.027c.026-.448.338-.749.798-.767l-.019-.47zm-1.249 1.213c-.017.348-.001.711-.001 1.075h.471c0-.394-.016-.718 0-1.052l-.47-.023zm.235.839h-.002v.471h.002v-.471zM.353 10.629l.017-.028a.816.816 0 0 1 .363-.336c.145-.067.306-.089.477-.085l-.857.449zm0 0v.032m0-.032v.032m0 .001v.362l.047.035c.035.026.071.059.11.097l.03.028c.03.029.061.059.093.087.079.07.188.156.316.161a50.47 50.47 0 0 0 2.667.012.557.557 0 0 0 .411-.171.714.714 0 0 0 .175-.397c.042-.311-.179-.586-.49-.658m-3.359.444 3.359-.445M.953 11.314c-.113-.005-.222-.109-.331-.214-.05-.048-.101-.097-.151-.135v-.303l.482.652zm0 0c.886.035 1.774.024 2.661.012.282-.004.434-.198.471-.466l-3.133.454zm2.759-1.097-.003-.001m.003.001-.003-.001m0 0a1.569 1.569 0 0 0-.355-.031m.355.031-.355-.031m.001 0c-.252-.001-.503 0-.753.001-.465.001-.928.003-1.392-.006l2.145.005zM31.647 10.994l-.013.026a.776.776 0 0 1-.333.346.948.948 0 0 1-.467.093c-.492-.01-.983-.008-1.475-.007l2.289-.458zm0 0v-.029m0 .029v-.029m-3.111.488v-.118c.273.001.546 0 .819-.001.493-.002.987-.003 1.48.007l-2.3.112zm0 0c-.213 0-.397-.054-.531-.163m.531.163-.531-.163m3.642-.325v-.335l-.018-.029a.927.927 0 0 0-.293-.304.785.785 0 0 0-.423-.114h-.001c-.352.002-.706.001-1.06.001-.444 0-.888-.001-1.33.003m3.125.778-3.125-.779m0 0a.806.806 0 0 0-.528.177.593.593 0 0 0-.203.469.586.586 0 0 0 .214.458m.517-1.104-.517 1.104M26.648 5.317l-.054-.054a1.355 1.355 0 0 0-.101-.09l-.024-.02a3.23 3.23 0 0 1-.092-.079.835.835 0 0 1-.209-.26.537.537 0 0 1-.017-.424.662.662 0 0 1 .284-.321c.254-.153.512-.302.769-.45l.224-.129-.781 1.827zm0 0 .071-.028m-.071.028.071-.028m0 .001.171-.063.061-.022c.067-.024.129-.049.189-.082l.001-.001c.7-.399 1.398-.802 2.093-1.21.183-.107.312-.248.368-.413a.592.592 0 0 0-.065-.505M26.719 5.29l2.819-2.295m0 0a.586.586 0 0 0-.413-.289.841.841 0 0 0-.542.119m.955.17-.955-.169m0 0c-.294.165-.585.334-.875.502l-.279.162 1.154-.664zM29.625 18.163v.044c.002.254-.088.463-.238.596s-.353.183-.553.125h-.001a1.252 1.252 0 0 1-.273-.12l-.13-.075c-.629-.361-1.258-.722-1.885-1.088-.191-.112-.327-.255-.387-.422a.591.591 0 0 1 .066-.517.58.58 0 0 1 .414-.284c.17-.025.356.022.542.128l2.444 1.614zm0 0-.029-.033m.029.033-.029-.033m0 0c-.015-.017-.032-.04-.056-.072l-.006-.008a1.955 1.955 0 0 0-.074-.097.966.966 0 0 0-.236-.22m.372.397-.372-.397m0-.001h-.001m.001 0h-.001m.001 0c-.576-.351-1.163-.684-1.748-1.016m1.748 1.016-1.748-1.016m0 0-.294-.167.294.167zM3.086 2.698l-.018-.005-.019.001a.809.809 0 0 0-.405.114.571.571 0 0 0-.232.319.614.614 0 0 0 .012.446.694.694 0 0 0 .292.308c.681.404 1.368.797 2.054 1.19l.146.083a.608.608 0 0 0 .758-.084c.163-.151.229-.351.195-.547s-.165-.375-.369-.495a190.15 190.15 0 0 0-2.099-1.211l-.003-.002-.003-.002a1.747 1.747 0 0 0-.307-.116zM2.56 18.598c.147.241.439.323.715.167.73-.411 1.459-.826 2.175-1.261a.855.855 0 0 0 .243-.27c.021-.031.039-.058.055-.078L2.56 18.597zm0 0c-.155-.254-.081-.553.21-.728l-.21.728zm3.279-1.367.026-.032-.354.406a.784.784 0 0 0 .215-.21c.025-.034.046-.067.065-.094l.003-.005a.658.658 0 0 1 .045-.064z"/>
            <path d="m7.637 10.065-.001.004.562.538-.015.117c.167.022.324-.015.45-.107s.214-.231.255-.402c.022-.093.037-.191.051-.284l.018-.112c.327-1.971 1.291-3.545 2.893-4.728 1.219-.901 2.602-1.331 4.114-1.401.205-.009.378-.076.496-.2s.169-.294.155-.48a.598.598 0 0 0-.22-.433.744.744 0 0 0-.495-.147 7.911 7.911 0 0 0-.828.062h-.002c-2.57.369-4.605 1.619-6.064 3.77-.773 1.14-1.208 2.411-1.37 3.804z"/>
        </symbol>
    </defs>
</svg>