<svg width="41" height="22" viewBox="0 0 41 22" fill="none" xmlns="http://www.w3.org/2000/svg">
<path d="M0.160156 21V1.01172H5.58789V21H0.160156ZM18.8643 5.1543C18.2262 5.1543 17.6566 5.29102 17.1553 5.56445C16.654 5.82878 16.2256 6.21615 15.8701 6.72656C15.5147 7.23698 15.2412 7.86133 15.0498 8.59961C14.8675 9.32878 14.7764 10.1582 14.7764 11.0879C14.7764 12.3457 14.9359 13.403 15.2549 14.2598C15.5739 15.1165 16.057 15.7637 16.7041 16.2012C17.3604 16.6387 18.1807 16.8574 19.165 16.8574C20.0583 16.8574 20.915 16.7344 21.7354 16.4883C22.5648 16.2422 23.3988 15.946 24.2373 15.5996V20.166C23.3532 20.5579 22.4463 20.8405 21.5166 21.0137C20.596 21.1868 19.6162 21.2734 18.5772 21.2734C16.4079 21.2734 14.6305 20.8451 13.2451 19.9883C11.8688 19.1224 10.8525 17.9238 10.1963 16.3926C9.54916 14.8613 9.22559 13.084 9.22559 11.0605C9.22559 9.54753 9.43523 8.16211 9.8545 6.9043C10.2829 5.64648 10.9072 4.55729 11.7275 3.63672C12.5479 2.70703 13.5596 1.99154 14.7627 1.49023C15.9749 0.979818 17.3604 0.724609 18.919 0.724609C19.8851 0.724609 20.9014 0.838542 21.9678 1.06641C23.0433 1.28516 24.0915 1.64062 25.1123 2.13281L23.458 6.38477C22.7288 6.03841 21.9906 5.74674 21.2432 5.50977C20.4958 5.27279 19.7028 5.1543 18.8643 5.1543ZM33.5078 21H28.1895V1.01172H40.002V5.3457H33.5078V9.16016H39.4961V13.4941H33.5078V21Z" fill="#FF9B62"/>
</svg>
