<svg aria-hidden="true" style="position: absolute; width: 0; height: 0; overflow: hidden;" version="1.1" xmlns="http://www.w3.org/2000/svg" xmlns:xlink="http://www.w3.org/1999/xlink">
<defs>
<symbol id="icon-two" viewBox="0 0 32 32" width="22px" height="22px">
<path fill="#ef7229" style="fill: var(--color1, #ef7229)" d="M5.334 5.332h21.332v16h-19.772l-1.561 1.562v-17.562zM5.334 2.666c-1.467 0.004-2.655 1.194-2.655 2.662 0 0.002 0 0.003 0 0.005v-0l-0.013 24 5.334-5.332h18.666c1.472-0.004 2.663-1.196 2.668-2.667v-16c-0.005-1.471-1.197-2.662-2.667-2.666h-21.333zM8 16h10.666v2.666h-10.666v-2.666zM8 12h16v2.666h-16v-2.666zM8 8h16v2.666h-16v-2.666z"></path>
</symbol>
<symbol id="icon-five" viewBox="0 0 32 32" width="22px" height="22px">
<path fill="#ef7229" style="fill: var(--color1, #ef7229)" d="M20.771 18.564l-0.044-0.044h-1.056l-0.233-0.224c1.27-1.511 2.041-3.478 2.041-5.624 0-0.002 0-0.003 0-0.005v0c0-4.867-3.945-8.812-8.812-8.812s-8.812 3.945-8.812 8.812c0 4.866 3.944 8.811 8.81 8.812h0c0.001 0 0.003 0 0.005 0 2.147 0 4.113-0.771 5.638-2.052l-0.013 0.011 0.225 0.233v1.056l0.044 0.044 6.768 6.753 0.103-0.102 2.089-2.089-0.102-0.103-6.653-6.666zM12.666 18.521c-0.002 0-0.005 0-0.007 0-3.229 0-5.847-2.618-5.847-5.847 0-0.003 0-0.005 0-0.008v0c0-0.002 0-0.005 0-0.007 0-3.229 2.618-5.847 5.847-5.847 0.003 0 0.005 0 0.008 0h-0c0.002 0 0.005 0 0.007 0 3.229 0 5.847 2.618 5.847 5.847 0 0.003 0 0.005 0 0.008v-0c0 0.002 0 0.005 0 0.007 0 3.229-2.618 5.847-5.847 5.847-0.003 0-0.005 0-0.008 0h0z"></path>
</symbol>
<symbol id="icon-four" viewBox="0 0 32 32" width="22px" height="22px">
<path fill="#ef7229" style="fill: var(--color1, #ef7229)" d="M12 0l-12 16h12l-8 16 28-20h-16l12-12h-16z"></path>
</symbol>
<symbol id="icon-gfive" viewBox="0 0 50 32">
<path fill="#f9c6a8" style="fill: var(--color2, #f9c6a8)" d="M50 0h-50v32h6v-26h44v-6z"></path>
</symbol>
<symbol id="icon-gfor" viewBox="0 0 50 32">
<path fill="#f7b188" style="fill: var(--color3, #f7b188)" d="M50 0h-50v32h6v-26h44v-6z"></path>
</symbol>
<symbol id="icon-gone" viewBox="0 0 50 32">
<path fill="#f17c39" style="fill: var(--color4, #f17c39)" d="M50 0h-50v32h6v-26h44v-6z"></path>
</symbol>
<symbol id="icon-gsix" viewBox="0 0 50 32">
<path fill="#fcd9c4" style="fill: var(--color5, #fcd9c4)" d="M50 0h-50v32h6v-26h44v-6z"></path>
</symbol>
<symbol id="icon-gthree" viewBox="0 0 50 32">
<path fill="#f59e6b" style="fill: var(--color6, #f59e6b)" d="M50 0h-50v32h6v-26h44v-6z"></path>
</symbol>
<symbol id="icon-gtwoo" viewBox="0 0 50 32">
<path fill="#f38f55" style="fill: var(--color7, #f38f55)" d="M50 0h-50v32h6v-26h44v-6z"></path>
</symbol>
<symbol id="icon-one" viewBox="0 0 32 32" width="22px" height="22px">
<path fill="none" stroke="#ef7229" style="stroke: var(--color1, #ef7229)" stroke-linejoin="round" stroke-linecap="round" stroke-miterlimit="4" stroke-width="2.9091" d="M10.666 17.332v-10c0-1.105 0.895-2 2-2s2 0.895 2 2v0M14.666 7.332v-2.666c0-0.001 0-0.001 0-0.002 0-1.105 0.895-2 2-2 0.829 0 1.541 0.505 1.844 1.224l0.005 0.013c0.1 0.243 0.151 10.899 0.151 11.161M14.666 7.332v7.729M18.666 7.332c0-1.105 0.895-2 2-2s2 0.895 2 2v0 8.668"></path>
<path fill="none" stroke="#ef7229" style="stroke: var(--color1, #ef7229)" stroke-linejoin="round" stroke-linecap="round" stroke-miterlimit="4" stroke-width="2.9091" d="M22.666 10c0-1.105 0.895-2 2-2s2 0.895 2 2v11.334c0 4.418-3.582 8-8 8v0h-2.39c-0 0-0.001 0-0.001 0-2.78 0-5.229-1.418-6.663-3.571l-0.018-0.029-0.262-0.4c-0.415-0.64-1.876-3.185-4.381-7.638-0.162-0.282-0.257-0.62-0.257-0.981 0-0.725 0.386-1.36 0.964-1.711l0.009-0.005c0.365-0.223 0.808-0.355 1.281-0.355 0.687 0 1.309 0.278 1.759 0.729v0l1.959 1.961"></path>
</symbol>
<symbol id="icon-rfive" viewBox="0 0 32 32"  width="16px" height="16px">
<path fill="#f9c6a8" style="fill: var(--color2, #f9c6a8)" d="M16 16l-16-16h32v32l-16-16z"></path>
</symbol>
<symbol id="icon-rfor" viewBox="0 0 32 32"  width="16px" height="16px">
<path fill="#f3ae86" style="fill: var(--color8, #f3ae86)" d="M16 16l-16-16h32v32l-16-16z"></path>
</symbol>
<symbol id="icon-rone" viewBox="0 0 32 32"  width="16px" height="16px">
<path fill="#f07b37" style="fill: var(--color9, #f07b37)" d="M16 16l-16-16h32v32l-16-16z"></path>
</symbol>
<symbol id="icon-rthree" viewBox="0 0 32 32"  width="16px" height="16px">
<path fill="#f59e6b" style="fill: var(--color6, #f59e6b)" d="M16 16l-16-16h32v32l-16-16z"></path>
</symbol>
<symbol id="icon-rtwo" viewBox="0 0 32 32"  width="16px" height="16px">
<path fill="#f38f55" style="fill: var(--color7, #f38f55)" d="M16 16l-16-16h32v32l-16-16z"></path>
</symbol>
<symbol id="icon-six" viewBox="0 0 27 32" width="22px" height="22px">
<path fill="#ef7229" style="fill: var(--color1, #ef7229)" d="M24.176 4.396h-2.901v-3.143c0-0.401-0.325-0.726-0.726-0.726h-2.417c-0.401 0-0.726 0.325-0.726 0.726v0 3.143h-7.734v-3.143c0-0.401-0.325-0.726-0.726-0.726v0h-2.416c-0.401 0-0.726 0.325-0.726 0.726v0 3.143h-2.902c-1.602 0-2.901 1.299-2.901 2.901v0 21.274c0 0 0 0.001 0 0.001 0 1.602 1.299 2.901 2.901 2.901h21.275c1.602 0 2.901-1.299 2.901-2.901 0-0 0-0.001 0-0.001v0-21.273c0-1.602-1.299-2.901-2.901-2.901v0zM23.813 28.571h-20.549c-0 0-0.001 0-0.001 0-0.2 0-0.362-0.162-0.362-0.362 0 0 0 0 0 0v0-18.011h21.275v18.011c-0.001 0.2-0.163 0.362-0.363 0.362 0 0 0 0 0 0v0zM20.619 16.444l-8.601 8.533c-0.131 0.13-0.312 0.21-0.511 0.21-0.202 0-0.384-0.082-0.516-0.215l-0-0-4.538-4.575c-0.13-0.131-0.211-0.312-0.211-0.511 0-0.201 0.082-0.384 0.214-0.515l0-0 1.374-1.361c0.131-0.13 0.312-0.21 0.511-0.21 0.201 0 0.383 0.082 0.514 0.214l0 0 2.666 2.687 6.713-6.658c0.131-0.13 0.312-0.211 0.511-0.211 0.201 0 0.384 0.082 0.515 0.214l0 0 1.361 1.374c0.13 0.131 0.21 0.312 0.21 0.511 0 0.201-0.082 0.383-0.214 0.514l-0 0z"></path>
</symbol>
<symbol id="icon-three" viewBox="0 0 32 32" width="22px" height="22px">
<path fill="#ef7229" style="fill: var(--color1, #ef7229)" d="M1.001 0c0.552 0.001 0.999 0.449 0.999 1.001 0 0 0 0 0 0v0 30c0 0.552-0.448 1-1 1s-1-0.448-1-1v0-30c0-0.553 0.448-1.001 1.001-1.001v0zM4 3.001c0-0.553 0.448-1.001 1.001-1.001v0h8c0.552 0.001 0.999 0.449 0.999 1.001 0 0 0 0 0 0v0 1.999c0 0.553-0.448 1.001-1.001 1.001h-8c-0.552-0.001-0.999-0.449-0.999-1.001 0 0 0 0 0 0v0-1.999zM8 11.001c0-0.553 0.448-1.001 1.001-1.001v0h14c0 0 0 0 0 0 0.552 0 0.999 0.447 0.999 0.999 0 0.001 0 0.001 0 0.002v-0 2c0 0 0 0 0 0 0 0.552-0.447 0.999-0.999 0.999-0 0-0.001 0-0.002 0h-13.998c-0.553 0-1.001-0.448-1.001-1.001v0-1.999zM12 19.001c0-0 0-0.001 0-0.001 0-0.552 0.447-0.999 0.999-0.999 0.001 0 0.001 0 0.002 0h12c0 0 0 0 0 0 0.552 0 0.999 0.447 0.999 0.999 0 0 0 0.001 0 0.002v-0 1.999c0 0 0 0.001 0 0.001 0 0.552-0.447 0.999-0.999 0.999-0 0-0.001 0-0.002 0h-12c0 0 0 0 0 0-0.552 0-0.999-0.447-0.999-0.999 0-0 0-0.001 0-0.002v0-1.999zM16 27.001c0-0 0-0.001 0-0.001 0-0.552 0.447-0.999 0.999-0.999 0 0 0.001 0 0.002 0h13.998c0 0 0.001 0 0.001 0 0.552 0 0.999 0.447 0.999 0.999 0 0 0 0.001 0 0.002v-0 2c0 0 0 0 0 0 0 0.552-0.447 0.999-0.999 0.999-0 0-0.001 0-0.002 0h-14c0 0 0 0 0 0-0.552 0-0.999-0.447-0.999-0.999 0-0 0-0.001 0-0.002v0-2z"></path>
</symbol>
</defs>
</svg>
