<svg aria-hidden="true" style="position: absolute; width: 0; height: 0; overflow: hidden;" version="1.1" xmlns="http://www.w3.org/2000/svg" xmlns:xlink="http://www.w3.org/1999/xlink">
<defs>
<symbol id="icon-five" viewBox="0 0 35 32" width="22px" height="22px">
<path fill="none" stroke="#00a5cc" style="stroke: var(--color1, #00a5cc)" stroke-linejoin="round" stroke-linecap="round" stroke-miterlimit="4" stroke-width="2.9091" d="M17.455 29.332c8.033 0 14.545-5.969 14.545-13.332 0-7.364-6.512-13.334-14.545-13.334s-14.545 5.969-14.545 13.334c0 7.363 6.512 13.332 14.545 13.332z"></path>
<path fill="none" stroke="#00a5cc" style="stroke: var(--color1, #00a5cc)" stroke-linejoin="round" stroke-linecap="round" stroke-miterlimit="4" stroke-width="2.9091" d="M17.455 24c4.82 0 8.727-3.581 8.727-8s-3.907-8-8.727-8-8.727 3.581-8.727 8 3.907 8 8.727 8z"></path>
<path fill="none" stroke="#00a5cc" style="stroke: var(--color1, #00a5cc)" stroke-linejoin="round" stroke-linecap="round" stroke-miterlimit="4" stroke-width="2.9091" d="M17.455 18.668c1.607 0 2.909-1.194 2.909-2.668 0-1.472-1.302-2.666-2.909-2.666s-2.909 1.193-2.909 2.666 1.302 2.668 2.909 2.668z"></path>
</symbol>
<symbol id="icon-four" viewBox="0 0 41 32" width="22px" height="22px">
<path fill="#00a5cc" style="fill: var(--color1, #00a5cc)" d="M10.444 1.5v7.382l1.494-1.444c0.588-0.582 1.537-0.582 2.068 0 0.639 0.588 0.639 1.537 0 2.070l-4 4c-0.531 0.637-1.481 0.637-2.068 0l-3.999-4c-0.586-0.532-0.586-1.482 0-2.070 0.586-0.582 1.536-0.582 2.122 0l1.382 1.444v-7.383c0.001-0.828 0.729-1.498 1.503-1.498 0.887 0 1.5 0.672 1.5 1.5zM22.444 12.5c0 1.382-1.062 2.5-2.5 2.5-1.324 0-2.499-1.12-2.499-2.502 0-1.38 1.174-2.499 2.499-2.499 1.439 0 2.502 1.12 2.502 2.5zM11.444 18.5c0 1.382-1.062 2.5-2.502 2.5-1.324 0-2.499-1.12-2.499-2.502 0-1.379 1.175-2.499 2.502-2.499 1.437 0 2.5 1.12 2.5 2.5zM28.444 18.5c0-1.382 1.175-2.5 2.5-2.5 1.437 0 2.5 1.12 2.5 2.5 0 1.382-1.062 2.5-2.502 2.5-1.324 0-2.499-1.12-2.499-2.502zM12.444 30c0 0.011 0 0.024 0 0.037 0 1.084-0.879 1.964-1.964 1.964-0.013 0-0.026-0-0.039-0l0.002 0h-2.999c-1.050 0-2-0.893-2-2v-2.406l-1.623 3.119c-0.268 0.438-0.743 0.726-1.286 0.726-0.83 0-1.503-0.673-1.503-1.503 0-0.236 0.054-0.459 0.151-0.657l-0.004 0.009 2.367-4.393c0.948-1.735 2.759-2.892 4.84-2.895h1.227c1.018 0 1.993 0.281 2.836 0.787l2.096-3.892c0.963-1.78 2.825-2.95 4.844-2.95h1.225c2.019 0 3.882 1.169 4.844 2.95l2.095 3.894c0.809-0.494 1.789-0.787 2.836-0.787h1.226c2.082 0.003 3.894 1.16 4.829 2.866l0.014 0.029 2.362 4.393c0.091 0.188 0.144 0.408 0.144 0.641 0 0.829-0.672 1.501-1.501 1.501-0.539 0-1.011-0.284-1.276-0.71l-0.004-0.006-1.74-3.121v2.406c0 0.011 0 0.025 0 0.038 0 1.084-0.879 1.964-1.964 1.964-0.013 0-0.026-0-0.039-0l0.002 0h-2.999c-1.050 0-2-0.893-2-2v-2.406l-1.626 3.119c-0.393 0.724-1.299 0.999-2.031 0.607-0.473-0.257-0.788-0.751-0.788-1.318 0-0.262 0.067-0.508 0.186-0.722l-0.004 0.008 2.269-4.218c-0.108-0.1-0.198-0.218-0.266-0.349l-0.003-0.007-1.737-3.119v3.405c0 0.011 0 0.024 0 0.037 0 1.084-0.879 1.964-1.964 1.964-0.013 0-0.026-0-0.039-0l0.002 0h-3.001c-1.050 0-2-0.893-2-2v-3.405l-1.625 3.119c-0.125 0.137-0.163 0.256-0.269 0.356l2.269 4.218c0.113 0.206 0.18 0.452 0.18 0.713 0 0.828-0.671 1.499-1.499 1.499-0.567 0-1.060-0.314-1.315-0.778l-0.004-0.008-1.738-3.12v2.406zM25.937 9.505c-0.582-0.531-0.582-1.481 0-2.068 0.588-0.582 1.537-0.582 2.068 0l1.439 1.444v-7.383c0-0.829 0.724-1.5 1.498-1.5 0.889 0 1.501 0.672 1.501 1.5v7.382l1.494-1.444c0.588-0.582 1.537-0.582 2.068 0 0.639 0.588 0.639 1.537 0 2.070l-4 4c-0.531 0.637-1.481 0.637-2.068 0l-4-4z"></path>
</symbol>
<symbol id="icon-gfive" viewBox="0 0 50 32">
<path fill="#7fdcf1" style="fill: var(--color2, #7fdcf1)" d="M50 0h-50v32h6v-26h44v-6z"></path>
</symbol>
<symbol id="icon-gfor" viewBox="0 0 50 32">
<path fill="#5dcee7" style="fill: var(--color3, #5dcee7)" d="M50 0h-50v32h6v-26h44v-6z"></path>
</symbol>
<symbol id="icon-gone" viewBox="0 0 50 32">
<path fill="#02a6cd" style="fill: var(--color4, #02a6cd)" d="M50 0h-50v32h6v-26h44v-6z"></path>
</symbol>
<symbol id="icon-gsix" viewBox="0 0 50 32" >
<path fill="#9de9fa" style="fill: var(--color5, #9de9fa)" d="M50 0h-50v32h6v-26h44v-6z"></path>
</symbol>
<symbol id="icon-gthree" viewBox="0 0 50 32" >
<path fill="#41c1df" style="fill: var(--color6, #41c1df)" d="M50 0h-50v32h6v-26h44v-6z"></path>
</symbol>
<symbol id="icon-gtwoo" viewBox="0 0 50 32" >
<path fill="#27b6d8" style="fill: var(--color7, #27b6d8)" d="M50 0h-50v32h6v-26h44v-6z"></path>
</symbol>
<symbol id="icon-one" viewBox="0 0 32 32" width="22px" height="22px">
<path fill="#00a5cc" style="fill: var(--color1, #00a5cc)" d="M15.78 14.268c-1.042 0.006-1.884 0.852-1.884 1.895 0 1.047 0.849 1.895 1.895 1.895 0.004 0 0.008 0 0.011-0h-0.001c1.042-0.006 1.884-0.852 1.884-1.895 0-1.047-0.849-1.895-1.895-1.895-0.004 0-0.008 0-0.011 0h0.001zM9.644 14.268c-1.042 0.006-1.884 0.852-1.884 1.895 0 1.047 0.849 1.895 1.895 1.895 0.004 0 0.008 0 0.011-0h-0.001c1.042-0.006 1.884-0.852 1.884-1.895 0-1.047-0.849-1.895-1.895-1.895-0.004 0-0.008 0-0.011 0h0.001zM21.917 14.268c-0.012-0-0.026-0-0.040-0-1.047 0-1.895 0.849-1.895 1.895s0.849 1.895 1.895 1.895c0.022 0 0.044-0 0.066-0.001l-0.003 0c1.019-0.035 1.832-0.87 1.832-1.894 0-1.033-0.826-1.873-1.854-1.895l-0.002-0zM30.463 11.194c-0.863-1.343-2.073-2.531-3.593-3.535-2.938-1.935-6.8-2.999-10.871-2.999-1.341-0.003-2.681 0.116-4.001 0.352-0.801-0.77-1.704-1.444-2.684-1.996l-0.066-0.034c-3.709-1.852-6.977-1.164-8.628-0.567-0.311 0.113-0.529 0.405-0.529 0.748 0 0.213 0.084 0.407 0.221 0.549l-0-0c1.164 1.204 3.091 3.584 2.618 5.748-1.841 1.882-2.841 4.154-2.841 6.518 0 2.409 0.998 4.681 2.839 6.563 0.473 2.164-1.455 4.545-2.618 5.75-0.137 0.142-0.221 0.336-0.221 0.55 0 0.344 0.219 0.636 0.524 0.746l0.006 0.002c1.652 0.595 4.919 1.286 8.63-0.567 1.046-0.588 1.948-1.262 2.753-2.037l-0.004 0.004c1.322 0.237 2.662 0.355 4.003 0.353 4.073 0 7.933-1.063 10.87-2.998 1.521-1.004 2.73-2.191 3.593-3.535 0.963-1.495 1.449-3.107 1.449-4.785 0-1.722-0.487-3.331-1.449-4.829zM15.833 24.551c-0.016 0-0.035 0-0.055 0-1.748 0-3.441-0.234-5.050-0.671l0.135 0.031-1.117 1.078c-0.621 0.596-1.315 1.11-2.064 1.533-0.848 0.434-1.839 0.729-2.886 0.824l-0.031 0.002c0.055-0.099 0.105-0.198 0.159-0.298 1.12-2.063 1.423-3.916 0.906-5.559-1.833-1.443-2.932-3.29-2.932-5.3 0-4.617 5.792-8.359 12.937-8.359 7.143 0 12.937 3.743 12.937 8.359s-5.792 8.359-12.937 8.359z"></path>
</symbol>
<symbol id="icon-rfive" viewBox="0 0 32 32" width="16px" height="16px">
<path fill="#7fdcf1" style="fill: var(--color2, #7fdcf1)" d="M16 16l-16-16h32v32l-16-16z"></path>
</symbol>
<symbol id="icon-rfor" viewBox="0 0 32 32" width="16px" height="16px">
<path fill="#5dcee7" style="fill: var(--color3, #5dcee7)" d="M16 16l-16-16h32v32l-16-16z"></path>
</symbol>
<symbol id="icon-rone" viewBox="0 0 32 32" width="16px" height="16px">
<path fill="#02a6cd" style="fill: var(--color4, #02a6cd)" d="M16 16l-16-16h32v32l-16-16z"></path>
</symbol>
<symbol id="icon-rthree" viewBox="0 0 32 32" width="16px" height="16px">
<path fill="#27b6d8" style="fill: var(--color7, #27b6d8)" d="M16 16l-16-16h32v32l-16-16z"></path>
</symbol>
<symbol id="icon-rtwo" viewBox="0 0 32 32" width="16px" height="16px">
<path fill="#27b6d8" style="fill: var(--color7, #27b6d8)" d="M16 16l-16-16h32v32l-16-16z"></path>
</symbol>
<symbol id="icon-six" viewBox="0 0 21 32" width="22px" height="22px">
<path fill="none" stroke="#00a5cc" style="stroke: var(--color1, #00a5cc)" stroke-linejoin="round" stroke-linecap="round" stroke-miterlimit="4" stroke-width="3.5556" d="M10.667 2.964v4.889M4.148 2.964v9.778M17.186 2.964v9.778M10.667 26.594l-4.889 2.444 0.814-5.705-3.259-3.259 4.889-0.814 2.444-4.889 2.444 4.889 4.889 0.814-3.259 3.259 0.814 5.705-4.889-2.444z"></path>
</symbol>
<symbol id="icon-three" viewBox="0 0 35 32" width="22px" height="22px">
<path fill="#00a5cc" style="fill: var(--color1, #00a5cc)" d="M7.273 20h-2.909v5.334c0 1.466 1.309 2.666 2.909 2.666h5.818v-2.666h-5.818v-5.334zM7.273 6.666h5.818v-2.666h-5.818c-1.6 0-2.909 1.2-2.909 2.666v5.334h2.909v-5.334zM27.636 4h-5.818v2.666h5.818v5.334h2.909v-5.334c0-1.466-1.309-2.666-2.909-2.666zM27.636 25.334h-5.818v2.666h5.818c1.6 0 2.909-1.2 2.909-2.666v-5.334h-2.909v5.334zM17.455 10.666c-3.215 0-5.818 2.387-5.818 5.334s2.604 5.334 5.818 5.334 5.818-2.387 5.818-5.334-2.604-5.334-5.818-5.334zM17.455 18.666c-1.6 0-2.909-1.2-2.909-2.666s1.309-2.666 2.909-2.666 2.909 1.2 2.909 2.666-1.309 2.666-2.909 2.666z"></path>
</symbol>
<symbol id="icon-two" viewBox="0 0 32 32" width="22px" height="22px">
<path fill="#00a5cc" style="fill: var(--color1, #00a5cc)" d="M25.334 24l2.666 1.334v-21.334c-0.005-1.47-1.196-2.661-2.666-2.666h-13.349c-1.466 0.006-2.652 1.195-2.652 2.662 0 0.002 0 0.003 0 0.005v-0h13.332c1.468 0 2.668 1.2 2.668 2.668v17.332zM20 6.668h-13.334c-1.47 0.005-2.661 1.196-2.666 2.666v21.334l9.334-4 9.332 4v-21.334c-0.005-1.47-1.196-2.661-2.666-2.666h-0z"></path>
</symbol>
</defs>
</svg>
