<svg width="246" height="152" viewBox="0 0 246 152" fill="none" xmlns="http://www.w3.org/2000/svg">
<rect x="139" y="89" width="107" height="24" fill="#00A5CC"/>
<path fill-rule="evenodd" clip-rule="evenodd" d="M150.956 147.086C192.021 147.086 225.31 113.797 225.31 72.7325C225.31 42.6213 207.411 16.6906 181.672 4.99969C213.046 13.7192 236.071 42.4934 236.071 76.6455C236.071 117.71 202.782 150.999 161.718 150.999C150.764 150.999 140.364 148.631 131.001 144.378C137.351 146.143 144.044 147.086 150.956 147.086Z" fill="#FF9B62"/>
<rect x="55" y="93" width="72" height="28" transform="rotate(-90 55 93)" fill="#FF9B62"/>
<path d="M48.64 93V88.84H62.592C65.4933 88.84 67.776 88.0293 69.44 86.408C71.104 84.7867 71.936 82.76 71.936 80.328C71.936 78.7493 71.5733 77.32 70.848 76.04C70.1227 74.76 69.0773 73.7573 67.712 73.032C66.3893 72.264 64.8107 71.88 62.976 71.88H48.64V67.784H62.272C64.6613 67.784 66.5387 67.144 67.904 65.864C69.312 64.584 70.016 62.7707 70.016 60.424C70.016 58.0773 69.2693 56.264 67.776 54.984C66.2827 53.704 64.2773 53.064 61.76 53.064H48.64V48.968H61.888C64.6187 48.968 66.944 49.4587 68.864 50.44C70.784 51.4213 72.2347 52.744 73.216 54.408C74.1973 56.072 74.688 57.9493 74.688 60.04C74.688 62.5147 74.048 64.648 72.768 66.44C71.488 68.1893 69.6107 69.5333 67.136 70.472L67.584 68.936C70.4427 69.832 72.6613 71.304 74.24 73.352C75.8613 75.4 76.672 77.832 76.672 80.648C76.672 82.9947 76.096 85.1067 74.944 86.984C73.8347 88.8187 72.192 90.2907 70.016 91.4C67.8827 92.4667 65.3013 93 62.272 93H48.64ZM45.632 93V48.968H50.304V93H45.632ZM100.992 93.64C97.9627 93.64 95.2533 92.9573 92.864 91.592C90.4747 90.2267 88.576 88.3493 87.168 85.96C85.8027 83.5707 85.12 80.8827 85.12 77.896C85.12 74.952 85.8027 72.3067 87.168 69.96C88.5333 67.5707 90.3893 65.6933 92.736 64.328C95.0827 62.9627 97.7067 62.28 100.608 62.28C103.339 62.28 105.749 62.8987 107.84 64.136C109.973 65.3733 111.637 67.1013 112.832 69.32C114.069 71.496 114.688 74.0133 114.688 76.872C114.688 77.2133 114.667 77.6187 114.624 78.088C114.581 78.5147 114.496 79.0267 114.368 79.624H88.32V75.784H111.936L110.336 77.192C110.379 74.9733 109.995 73.0747 109.184 71.496C108.416 69.8747 107.285 68.6373 105.792 67.784C104.341 66.888 102.571 66.44 100.48 66.44C98.304 66.44 96.4053 66.9093 94.784 67.848C93.1627 68.7867 91.8827 70.1093 90.944 71.816C90.048 73.48 89.6 75.464 89.6 77.768C89.6 80.072 90.0693 82.0987 91.008 83.848C91.9893 85.5973 93.3333 86.9627 95.04 87.944C96.7893 88.9253 98.7947 89.416 101.056 89.416C102.891 89.416 104.576 89.096 106.112 88.456C107.648 87.7733 108.949 86.7707 110.016 85.448L112.896 88.392C111.488 90.056 109.739 91.3573 107.648 92.296C105.6 93.192 103.381 93.64 100.992 93.64ZM128.774 93V50.248H133.318V93H128.774ZM121.158 66.952V62.92H158.534V66.952H121.158ZM146.438 93V50.248H150.982V93H146.438ZM180.05 93.64C177.02 93.64 174.311 92.9573 171.922 91.592C169.532 90.2267 167.634 88.3493 166.226 85.96C164.86 83.5707 164.178 80.8827 164.178 77.896C164.178 74.952 164.86 72.3067 166.226 69.96C167.591 67.5707 169.447 65.6933 171.794 64.328C174.14 62.9627 176.764 62.28 179.666 62.28C182.396 62.28 184.807 62.8987 186.898 64.136C189.031 65.3733 190.695 67.1013 191.89 69.32C193.127 71.496 193.746 74.0133 193.746 76.872C193.746 77.2133 193.724 77.6187 193.682 78.088C193.639 78.5147 193.554 79.0267 193.426 79.624H167.378V75.784H190.994L189.394 77.192C189.436 74.9733 189.052 73.0747 188.242 71.496C187.474 69.8747 186.343 68.6373 184.85 67.784C183.399 66.888 181.628 66.44 179.538 66.44C177.362 66.44 175.463 66.9093 173.842 67.848C172.22 68.7867 170.94 70.1093 170.002 71.816C169.106 73.48 168.658 75.464 168.658 77.768C168.658 80.072 169.127 82.0987 170.066 83.848C171.047 85.5973 172.391 86.9627 174.098 87.944C175.847 88.9253 177.852 89.416 180.114 89.416C181.948 89.416 183.634 89.096 185.17 88.456C186.706 87.7733 188.007 86.7707 189.074 85.448L191.954 88.392C190.546 90.056 188.796 91.3573 186.706 92.296C184.658 93.192 182.439 93.64 180.05 93.64ZM203.159 93V62.92H207.639V93H203.159ZM207.639 75.464L205.783 74.632C205.783 70.8347 206.7 67.8267 208.535 65.608C210.412 63.3893 212.972 62.28 216.215 62.28C217.708 62.28 219.074 62.5573 220.311 63.112C221.548 63.624 222.7 64.456 223.767 65.608L220.823 68.744C220.098 67.9333 219.287 67.3573 218.391 67.016C217.538 66.6747 216.556 66.504 215.447 66.504C213.143 66.504 211.266 67.272 209.815 68.808C208.364 70.3013 207.639 72.52 207.639 75.464Z" fill="#05202C"/>
<circle cx="160" cy="76" r="75" stroke="#05202C" stroke-width="2"/>
<path d="M46.464 121V101.736H48.508V121H46.464ZM47.808 121V119.124H58.42V121H47.808ZM61.7719 121V107.84H63.7599V121H61.7719ZM62.7519 104.984C62.3786 104.984 62.0612 104.853 61.7999 104.592C61.5386 104.312 61.4079 103.985 61.4079 103.612C61.4079 103.22 61.5386 102.893 61.7999 102.632C62.0612 102.371 62.3786 102.24 62.7519 102.24C63.1626 102.24 63.4892 102.371 63.7319 102.632C63.9932 102.893 64.1239 103.22 64.1239 103.612C64.1239 103.985 63.9932 104.312 63.7319 104.592C63.4892 104.853 63.1626 104.984 62.7519 104.984ZM69.9448 121V105.6C69.9448 104.685 70.1408 103.873 70.5328 103.164C70.9435 102.455 71.5035 101.904 72.2128 101.512C72.9408 101.101 73.7622 100.896 74.6768 100.896C75.3862 100.896 76.0115 101.027 76.5528 101.288C77.0942 101.531 77.5888 101.876 78.0368 102.324L76.7488 103.612C76.4502 103.313 76.1328 103.099 75.7968 102.968C75.4795 102.819 75.1062 102.744 74.6768 102.744C73.7995 102.744 73.1182 103.005 72.6328 103.528C72.1662 104.032 71.9328 104.741 71.9328 105.656V121H69.9448ZM66.6408 109.604V107.84H76.3288V109.604H66.6408ZM84.5407 121.28C83.2154 121.28 82.0301 120.981 80.9847 120.384C79.9394 119.787 79.1087 118.965 78.4927 117.92C77.8954 116.875 77.5967 115.699 77.5967 114.392C77.5967 113.104 77.8954 111.947 78.4927 110.92C79.0901 109.875 79.9021 109.053 80.9287 108.456C81.9554 107.859 83.1034 107.56 84.3727 107.56C85.5674 107.56 86.6221 107.831 87.5367 108.372C88.4701 108.913 89.1981 109.669 89.7207 110.64C90.2621 111.592 90.5327 112.693 90.5327 113.944C90.5327 114.093 90.5234 114.271 90.5047 114.476C90.4861 114.663 90.4487 114.887 90.3927 115.148H78.9967V113.468H89.3287L88.6287 114.084C88.6474 113.113 88.4794 112.283 88.1247 111.592C87.7887 110.883 87.2941 110.341 86.6407 109.968C86.0061 109.576 85.2314 109.38 84.3167 109.38C83.3647 109.38 82.5341 109.585 81.8247 109.996C81.1154 110.407 80.5554 110.985 80.1447 111.732C79.7527 112.46 79.5567 113.328 79.5567 114.336C79.5567 115.344 79.7621 116.231 80.1727 116.996C80.6021 117.761 81.1901 118.359 81.9367 118.788C82.7021 119.217 83.5794 119.432 84.5687 119.432C85.3714 119.432 86.1087 119.292 86.7807 119.012C87.4527 118.713 88.0221 118.275 88.4887 117.696L89.7487 118.984C89.1327 119.712 88.3674 120.281 87.4527 120.692C86.5567 121.084 85.5861 121.28 84.5407 121.28ZM109.319 121.28C107.937 121.28 106.649 121.028 105.455 120.524C104.279 120.02 103.252 119.311 102.375 118.396C101.497 117.481 100.816 116.427 100.331 115.232C99.8641 114.019 99.6308 112.721 99.6308 111.34C99.6308 109.959 99.8641 108.671 100.331 107.476C100.816 106.263 101.488 105.208 102.347 104.312C103.224 103.416 104.251 102.716 105.427 102.212C106.603 101.708 107.872 101.456 109.235 101.456C110.709 101.456 112.025 101.717 113.183 102.24C114.359 102.763 115.385 103.481 116.263 104.396L114.863 105.796C114.191 105.049 113.379 104.471 112.427 104.06C111.475 103.631 110.411 103.416 109.235 103.416C108.152 103.416 107.153 103.612 106.239 104.004C105.343 104.396 104.549 104.956 103.859 105.684C103.187 106.393 102.664 107.233 102.291 108.204C101.936 109.156 101.759 110.201 101.759 111.34C101.759 112.479 101.945 113.533 102.319 114.504C102.692 115.475 103.215 116.324 103.887 117.052C104.559 117.761 105.352 118.312 106.267 118.704C107.181 119.096 108.18 119.292 109.263 119.292C110.495 119.292 111.587 119.077 112.539 118.648C113.509 118.219 114.331 117.631 115.003 116.884L116.403 118.312C115.544 119.227 114.517 119.955 113.323 120.496C112.128 121.019 110.793 121.28 109.319 121.28ZM125.245 121.28C123.976 121.28 122.819 120.972 121.773 120.356C120.747 119.74 119.925 118.909 119.309 117.864C118.712 116.819 118.413 115.652 118.413 114.364C118.413 113.095 118.712 111.947 119.309 110.92C119.925 109.893 120.747 109.081 121.773 108.484C122.819 107.868 123.976 107.56 125.245 107.56C126.533 107.56 127.691 107.859 128.717 108.456C129.744 109.053 130.556 109.875 131.153 110.92C131.769 111.947 132.077 113.095 132.077 114.364C132.077 115.671 131.769 116.847 131.153 117.892C130.556 118.919 129.744 119.74 128.717 120.356C127.691 120.972 126.533 121.28 125.245 121.28ZM125.245 119.376C126.179 119.376 127 119.161 127.709 118.732C128.437 118.303 129.007 117.705 129.417 116.94C129.847 116.175 130.061 115.316 130.061 114.364C130.061 113.412 129.847 112.572 129.417 111.844C129.007 111.097 128.437 110.509 127.709 110.08C127 109.651 126.179 109.436 125.245 109.436C124.331 109.436 123.509 109.651 122.781 110.08C122.053 110.509 121.484 111.097 121.073 111.844C120.663 112.572 120.457 113.412 120.457 114.364C120.457 115.335 120.663 116.203 121.073 116.968C121.484 117.715 122.053 118.303 122.781 118.732C123.509 119.161 124.331 119.376 125.245 119.376ZM141.187 121.28C139.937 121.28 138.817 120.981 137.827 120.384C136.838 119.768 136.054 118.947 135.475 117.92C134.915 116.893 134.635 115.736 134.635 114.448C134.635 113.141 134.915 111.975 135.475 110.948C136.054 109.903 136.838 109.081 137.827 108.484C138.817 107.868 139.927 107.56 141.159 107.56C142.167 107.56 143.063 107.765 143.847 108.176C144.65 108.568 145.294 109.128 145.779 109.856C146.283 110.565 146.591 111.396 146.703 112.348V116.464C146.591 117.416 146.283 118.256 145.779 118.984C145.294 119.712 144.65 120.281 143.847 120.692C143.063 121.084 142.177 121.28 141.187 121.28ZM141.495 119.404C142.858 119.404 143.95 118.947 144.771 118.032C145.611 117.117 146.031 115.913 146.031 114.42C146.031 113.431 145.835 112.563 145.443 111.816C145.07 111.051 144.538 110.463 143.847 110.052C143.175 109.623 142.382 109.408 141.467 109.408C140.534 109.408 139.703 109.623 138.975 110.052C138.266 110.481 137.697 111.079 137.267 111.844C136.857 112.591 136.651 113.449 136.651 114.42C136.651 115.391 136.857 116.249 137.267 116.996C137.697 117.743 138.275 118.331 139.003 118.76C139.731 119.189 140.562 119.404 141.495 119.404ZM145.919 121V117.472L146.311 114.224L145.919 111.06V107.84H147.879V121H145.919ZM158.126 121.28C156.838 121.28 155.672 120.981 154.626 120.384C153.6 119.768 152.778 118.937 152.162 117.892C151.565 116.847 151.266 115.68 151.266 114.392C151.266 113.104 151.565 111.947 152.162 110.92C152.778 109.875 153.6 109.053 154.626 108.456C155.672 107.859 156.838 107.56 158.126 107.56C159.116 107.56 160.04 107.747 160.898 108.12C161.757 108.493 162.485 109.016 163.082 109.688L161.794 111.004C161.346 110.5 160.805 110.117 160.17 109.856C159.536 109.576 158.854 109.436 158.126 109.436C157.193 109.436 156.362 109.651 155.634 110.08C154.906 110.509 154.337 111.097 153.926 111.844C153.516 112.572 153.31 113.421 153.31 114.392C153.31 115.344 153.516 116.203 153.926 116.968C154.337 117.715 154.906 118.303 155.634 118.732C156.362 119.161 157.193 119.376 158.126 119.376C158.873 119.376 159.564 119.245 160.198 118.984C160.833 118.704 161.374 118.312 161.822 117.808L163.138 119.124C162.522 119.815 161.776 120.347 160.898 120.72C160.04 121.093 159.116 121.28 158.126 121.28ZM175.744 121V113.272C175.744 112.115 175.399 111.181 174.708 110.472C174.036 109.744 173.14 109.38 172.02 109.38C171.255 109.38 170.583 109.548 170.004 109.884C169.425 110.22 168.968 110.677 168.632 111.256C168.296 111.835 168.128 112.497 168.128 113.244L167.232 112.74C167.232 111.751 167.465 110.864 167.932 110.08C168.399 109.296 169.024 108.68 169.808 108.232C170.611 107.784 171.525 107.56 172.552 107.56C173.56 107.56 174.456 107.793 175.24 108.26C176.024 108.708 176.631 109.333 177.06 110.136C177.508 110.939 177.732 111.872 177.732 112.936V121H175.744ZM166.168 121V101.176H168.128V121H166.168ZM181.679 121V107.84H183.667V121H181.679ZM182.659 104.984C182.285 104.984 181.968 104.853 181.707 104.592C181.445 104.312 181.315 103.985 181.315 103.612C181.315 103.22 181.445 102.893 181.707 102.632C181.968 102.371 182.285 102.24 182.659 102.24C183.069 102.24 183.396 102.371 183.639 102.632C183.9 102.893 184.031 103.22 184.031 103.612C184.031 103.985 183.9 104.312 183.639 104.592C183.396 104.853 183.069 104.984 182.659 104.984ZM197.496 121V113.272C197.496 112.115 197.15 111.181 196.46 110.472C195.788 109.744 194.892 109.38 193.772 109.38C193.006 109.38 192.334 109.548 191.756 109.884C191.177 110.22 190.72 110.677 190.384 111.256C190.048 111.835 189.88 112.497 189.88 113.244L188.984 112.74C188.984 111.751 189.217 110.864 189.684 110.08C190.15 109.296 190.776 108.68 191.56 108.232C192.362 107.784 193.277 107.56 194.304 107.56C195.312 107.56 196.208 107.803 196.992 108.288C197.776 108.773 198.382 109.427 198.812 110.248C199.26 111.069 199.484 111.965 199.484 112.936V121H197.496ZM187.92 121V107.84H189.88V121H187.92ZM208.862 126.824C207.537 126.824 206.351 126.572 205.306 126.068C204.279 125.583 203.449 124.892 202.814 123.996L204.102 122.708C204.625 123.417 205.287 123.968 206.09 124.36C206.893 124.752 207.835 124.948 208.918 124.948C210.411 124.948 211.597 124.547 212.474 123.744C213.37 122.941 213.818 121.849 213.818 120.468V117.192L214.21 114.196L213.818 111.228V107.84H215.778V120.468C215.778 121.737 215.489 122.848 214.91 123.8C214.331 124.752 213.519 125.489 212.474 126.012C211.447 126.553 210.243 126.824 208.862 126.824ZM209.002 120.86C207.789 120.86 206.697 120.571 205.726 119.992C204.755 119.413 203.99 118.62 203.43 117.612C202.87 116.604 202.59 115.465 202.59 114.196C202.59 112.927 202.861 111.797 203.402 110.808C203.962 109.8 204.727 109.007 205.698 108.428C206.669 107.849 207.761 107.56 208.974 107.56C210.001 107.56 210.915 107.756 211.718 108.148C212.539 108.54 213.193 109.1 213.678 109.828C214.182 110.537 214.49 111.377 214.602 112.348V116.072C214.49 117.024 214.182 117.864 213.678 118.592C213.174 119.301 212.521 119.861 211.718 120.272C210.915 120.664 210.01 120.86 209.002 120.86ZM209.366 118.984C210.281 118.984 211.074 118.788 211.746 118.396C212.437 118.004 212.969 117.453 213.342 116.744C213.734 116.016 213.93 115.167 213.93 114.196C213.93 113.244 213.734 112.413 213.342 111.704C212.969 110.995 212.437 110.435 211.746 110.024C211.055 109.613 210.253 109.408 209.338 109.408C208.423 109.408 207.602 109.613 206.874 110.024C206.165 110.435 205.605 110.995 205.194 111.704C204.802 112.413 204.606 113.244 204.606 114.196C204.606 115.129 204.811 115.96 205.222 116.688C205.633 117.416 206.193 117.985 206.902 118.396C207.611 118.788 208.433 118.984 209.366 118.984Z" fill="#05202C"/>
<rect y="50" width="44" height="43" fill="#00A5CC"/>
<path d="M5.22 86V83.048H12.78C14.22 83.048 15.348 82.628 16.164 81.788C16.98 80.924 17.388 79.892 17.388 78.692C17.388 77.876 17.208 77.144 16.848 76.496C16.488 75.824 15.96 75.296 15.264 74.912C14.592 74.528 13.8 74.336 12.888 74.336H5.22V71.384H12.384C13.584 71.384 14.532 71.072 15.228 70.448C15.948 69.8 16.308 68.876 16.308 67.676C16.308 66.476 15.936 65.564 15.192 64.94C14.448 64.292 13.464 63.968 12.24 63.968H5.22V61.016H12.312C13.944 61.016 15.3 61.316 16.38 61.916C17.484 62.492 18.312 63.26 18.864 64.22C19.44 65.18 19.728 66.236 19.728 67.388C19.728 68.732 19.356 69.908 18.612 70.916C17.892 71.924 16.824 72.716 15.408 73.292L15.696 72.212C17.304 72.788 18.552 73.664 19.44 74.84C20.352 75.992 20.808 77.36 20.808 78.944C20.808 80.264 20.484 81.452 19.836 82.508C19.188 83.564 18.252 84.416 17.028 85.064C15.828 85.688 14.352 86 12.6 86H5.22ZM2.952 86V61.016H6.336V86H2.952ZM34.1657 86.36C32.4617 86.36 30.9257 85.976 29.5577 85.208C28.1897 84.416 27.1097 83.348 26.3177 82.004C25.5257 80.66 25.1297 79.136 25.1297 77.432C25.1297 75.752 25.5137 74.24 26.2817 72.896C27.0737 71.552 28.1297 70.496 29.4497 69.728C30.7937 68.936 32.2937 68.54 33.9497 68.54C35.5337 68.54 36.9257 68.9 38.1257 69.62C39.3497 70.34 40.2977 71.336 40.9697 72.608C41.6657 73.88 42.0137 75.32 42.0137 76.928C42.0137 77.168 42.0017 77.432 41.9777 77.72C41.9537 77.984 41.9057 78.296 41.8337 78.656H27.3977V75.956H40.1057L38.9177 77C38.9177 75.848 38.7137 74.876 38.3057 74.084C37.8977 73.268 37.3217 72.644 36.5777 72.212C35.8337 71.756 34.9337 71.528 33.8777 71.528C32.7737 71.528 31.8017 71.768 30.9617 72.248C30.1217 72.728 29.4737 73.4 29.0177 74.264C28.5617 75.128 28.3337 76.148 28.3337 77.324C28.3337 78.524 28.5737 79.58 29.0537 80.492C29.5337 81.38 30.2177 82.076 31.1057 82.58C31.9937 83.06 33.0137 83.3 34.1657 83.3C35.1257 83.3 36.0017 83.132 36.7937 82.796C37.6097 82.46 38.3057 81.956 38.8817 81.284L40.9697 83.408C40.1537 84.368 39.1457 85.1 37.9457 85.604C36.7697 86.108 35.5097 86.36 34.1657 86.36Z" fill="#FAFCFC"/>
</svg>