<svg width="22" height="22" fill="none" xmlns="http://www.w3.org/2000/svg"><path d="M10.849 9.809a1.303 1.303 0 1 0 .015 2.606 1.303 1.303 0 0 0-.015-2.606Zm-4.219 0a1.303 1.303 0 1 0 .015 2.606 1.303 1.303 0 0 0-.015-2.606Zm8.438 0a1.303 1.303 0 1 0 .016 2.605 1.303 1.303 0 0 0-.016-2.605Zm5.875-2.113c-.593-.923-1.425-1.74-2.47-2.43-2.02-1.33-4.675-2.062-7.474-2.062-.922-.002-1.843.08-2.751.242A9.11 9.11 0 0 0 6.357 2.05C3.807.777 1.56 1.25.425 1.66a.546.546 0 0 0-.212.892c.8.828 2.125 2.464 1.8 3.952C.747 7.798.06 9.36.06 10.985c0 1.656.686 3.218 1.952 4.512.325 1.488-1 3.125-1.8 3.953a.545.545 0 0 0 .212.892c1.136.409 3.382.884 5.933-.39a9.118 9.118 0 0 0 1.89-1.398c.909.163 1.83.244 2.752.243 2.8 0 5.454-.731 7.473-2.061 1.046-.69 1.877-1.506 2.47-2.43.662-1.028.996-2.136.996-3.29 0-1.184-.335-2.29-.996-3.32Zm-10.058 9.183a13.197 13.197 0 0 1-3.417-.44l-.768.741c-.427.41-.904.763-1.419 1.054a5.568 5.568 0 0 1-2.006.568c.038-.068.072-.136.109-.205.77-1.418.978-2.692.623-3.822-1.26-.992-2.016-2.262-2.016-3.644 0-3.174 3.982-5.747 8.894-5.747 4.911 0 8.894 2.573 8.894 5.747s-3.982 5.747-8.894 5.747Z" fill="#00A5CC"/></svg>