<svg aria-hidden="true" style="position:absolute;width:0;height:0" xmlns="http://www.w3.org/2000/svg" overflow="hidden">
<defs>
<symbol id="logo" viewBox="0 0 52 32">
<path fill="#00a5cc" style="fill: var(--color1, #00a5cc)" d="M29.263 18.737h22.526v5.053h-22.526v-5.053z"></path>
<path fill="#ff9b62" style="fill: var(--color2, #ff9b62)" d="M31.78 30.965c8.645 0 15.653-7.008 15.653-15.653 0-6.339-3.768-11.798-9.187-14.26 6.605 1.836 11.452 7.893 11.452 15.083 0 8.645-7.008 15.653-15.653 15.653-2.306 0-4.496-0.499-6.467-1.394 1.337 0.372 2.746 0.57 4.201 0.57z"></path>
<path fill="#ff9b62" style="fill: var(--color2, #ff9b62)" d="M11.579 19.579v-15.158h5.895v15.158h-5.895z"></path>
<path fill="#05202c" style="fill: var(--color3, #05202c)" d="M10.24 19.579v-0.876h2.937c0.611 0 1.091-0.171 1.442-0.512s0.525-0.768 0.525-1.28c0-0.332-0.076-0.633-0.229-0.903s-0.373-0.481-0.66-0.633c-0.278-0.162-0.611-0.243-0.997-0.243h-3.018v-0.862h2.87c0.503 0 0.898-0.135 1.186-0.404 0.296-0.269 0.445-0.651 0.445-1.145s-0.157-0.876-0.472-1.145c-0.314-0.269-0.737-0.404-1.267-0.404h-2.762v-0.862h2.789c0.575 0 1.064 0.103 1.469 0.31s0.71 0.485 0.916 0.835c0.207 0.35 0.31 0.746 0.31 1.186 0 0.521-0.135 0.97-0.404 1.347-0.269 0.368-0.665 0.651-1.186 0.849l0.094-0.323c0.602 0.189 1.069 0.499 1.401 0.93 0.341 0.431 0.512 0.943 0.512 1.536 0 0.494-0.121 0.939-0.364 1.334-0.234 0.386-0.579 0.696-1.037 0.93-0.449 0.225-0.993 0.337-1.63 0.337h-2.87zM9.607 19.579v-9.27h0.984v9.27h-0.984zM21.261 19.714c-0.638 0-1.208-0.144-1.711-0.431s-0.903-0.683-1.199-1.186c-0.287-0.503-0.431-1.069-0.431-1.698 0-0.62 0.144-1.177 0.431-1.671 0.287-0.503 0.678-0.898 1.172-1.186s1.046-0.431 1.657-0.431c0.575 0 1.082 0.13 1.523 0.391 0.449 0.26 0.799 0.624 1.051 1.091 0.26 0.458 0.391 0.988 0.391 1.59 0 0.072-0.004 0.157-0.013 0.256-0.009 0.090-0.027 0.198-0.054 0.323h-5.484v-0.808h4.972l-0.337 0.296c0.009-0.467-0.072-0.867-0.243-1.199-0.162-0.341-0.4-0.602-0.714-0.781-0.305-0.189-0.678-0.283-1.118-0.283-0.458 0-0.858 0.099-1.199 0.296s-0.611 0.476-0.808 0.835c-0.189 0.35-0.283 0.768-0.283 1.253s0.099 0.912 0.296 1.28c0.207 0.368 0.49 0.656 0.849 0.862 0.368 0.207 0.79 0.31 1.267 0.31 0.386 0 0.741-0.067 1.064-0.202 0.323-0.144 0.597-0.355 0.822-0.633l0.606 0.62c-0.296 0.35-0.665 0.624-1.105 0.822-0.431 0.189-0.898 0.283-1.401 0.283zM27.11 19.579v-9h0.957v9h-0.957zM25.507 14.095v-0.849h7.869v0.849h-7.869zM30.829 19.579v-9h0.957v9h-0.957zM37.905 19.714c-0.638 0-1.208-0.144-1.711-0.431s-0.903-0.683-1.199-1.186c-0.288-0.503-0.431-1.069-0.431-1.698 0-0.62 0.144-1.177 0.431-1.671 0.287-0.503 0.678-0.898 1.172-1.186s1.046-0.431 1.657-0.431c0.575 0 1.082 0.13 1.523 0.391 0.449 0.26 0.799 0.624 1.051 1.091 0.26 0.458 0.391 0.988 0.391 1.59 0 0.072-0.005 0.157-0.013 0.256-0.009 0.090-0.027 0.198-0.054 0.323h-5.484v-0.808h4.972l-0.337 0.296c0.009-0.467-0.072-0.867-0.243-1.199-0.162-0.341-0.4-0.602-0.714-0.781-0.305-0.189-0.678-0.283-1.118-0.283-0.458 0-0.858 0.099-1.199 0.296s-0.611 0.476-0.808 0.835c-0.189 0.35-0.283 0.768-0.283 1.253s0.099 0.912 0.296 1.28c0.207 0.368 0.489 0.656 0.849 0.862 0.368 0.207 0.79 0.31 1.267 0.31 0.386 0 0.741-0.067 1.064-0.202 0.323-0.144 0.597-0.355 0.822-0.633l0.606 0.62c-0.296 0.35-0.665 0.624-1.105 0.822-0.431 0.189-0.898 0.283-1.401 0.283zM42.77 19.579v-6.333h0.943v6.333h-0.943zM43.713 15.887l-0.391-0.175c0-0.799 0.193-1.433 0.579-1.9 0.395-0.467 0.934-0.701 1.617-0.701 0.314 0 0.602 0.058 0.862 0.175 0.26 0.108 0.503 0.283 0.728 0.525l-0.62 0.66c-0.153-0.171-0.323-0.292-0.512-0.364-0.18-0.072-0.386-0.108-0.62-0.108-0.485 0-0.88 0.162-1.186 0.485-0.305 0.314-0.458 0.781-0.458 1.401z"></path>
<path fill="none" stroke="#05202c" style="stroke: var(--color3, #05202c)" stroke-linejoin="miter" stroke-linecap="butt" stroke-miterlimit="4" stroke-width="0.4211" d="M49.474 16c0 8.72-7.069 15.789-15.789 15.789s-15.789-7.069-15.789-15.789c0-8.72 7.069-15.789 15.789-15.789s15.789 7.069 15.789 15.789z"></path>
<path fill="#05202c" style="fill: var(--color3, #05202c)" d="M9.782 25.474v-4.056h0.43v4.056h-0.43zM10.065 25.474v-0.395h2.234v0.395h-2.234zM13.005 25.474v-2.771h0.419v2.771h-0.419zM13.211 22.102c-0.079 0-0.145-0.028-0.2-0.083-0.055-0.059-0.083-0.128-0.083-0.206 0-0.083 0.028-0.151 0.083-0.206s0.122-0.083 0.2-0.083c0.086 0 0.155 0.028 0.206 0.083 0.055 0.055 0.083 0.124 0.083 0.206 0 0.079-0.028 0.147-0.083 0.206-0.051 0.055-0.12 0.083-0.206 0.083zM14.725 25.474v-3.242c0-0.193 0.041-0.364 0.124-0.513 0.086-0.149 0.204-0.265 0.354-0.348 0.153-0.087 0.326-0.13 0.519-0.13 0.149 0 0.281 0.028 0.395 0.083 0.114 0.051 0.218 0.124 0.312 0.218l-0.271 0.271c-0.063-0.063-0.13-0.108-0.2-0.136-0.067-0.031-0.145-0.047-0.236-0.047-0.185 0-0.328 0.055-0.43 0.165-0.098 0.106-0.147 0.255-0.147 0.448v3.23h-0.419zM14.030 23.075v-0.371h2.040v0.371h-2.040zM17.798 25.533c-0.279 0-0.529-0.063-0.749-0.189s-0.395-0.299-0.525-0.519c-0.126-0.22-0.189-0.468-0.189-0.743 0-0.271 0.063-0.515 0.189-0.731 0.126-0.22 0.297-0.393 0.513-0.519s0.458-0.189 0.725-0.189c0.252 0 0.474 0.057 0.666 0.171 0.197 0.114 0.35 0.273 0.46 0.477 0.114 0.2 0.171 0.432 0.171 0.696 0 0.031-0.002 0.069-0.006 0.112-0.004 0.039-0.012 0.087-0.024 0.141h-2.399v-0.354h2.175l-0.147 0.13c0.004-0.204-0.031-0.379-0.106-0.525-0.071-0.149-0.175-0.263-0.312-0.342-0.134-0.083-0.297-0.124-0.489-0.124-0.2 0-0.375 0.043-0.525 0.13s-0.267 0.208-0.354 0.365c-0.083 0.153-0.124 0.336-0.124 0.548s0.043 0.399 0.13 0.56c0.090 0.161 0.214 0.287 0.371 0.377 0.161 0.090 0.346 0.136 0.554 0.136 0.169 0 0.324-0.029 0.466-0.088 0.141-0.063 0.261-0.155 0.36-0.277l0.265 0.271c-0.13 0.153-0.291 0.273-0.483 0.36-0.189 0.083-0.393 0.124-0.613 0.124zM23.015 25.533c-0.291 0-0.562-0.053-0.813-0.159-0.248-0.106-0.464-0.255-0.648-0.448s-0.328-0.415-0.43-0.666c-0.098-0.255-0.147-0.529-0.147-0.819s0.049-0.562 0.147-0.813c0.102-0.255 0.244-0.477 0.424-0.666 0.185-0.189 0.401-0.336 0.648-0.442s0.515-0.159 0.802-0.159c0.31 0 0.587 0.055 0.831 0.165 0.248 0.11 0.464 0.261 0.648 0.454l-0.295 0.295c-0.141-0.157-0.312-0.279-0.513-0.365-0.2-0.090-0.424-0.136-0.672-0.136-0.228 0-0.438 0.041-0.631 0.124-0.189 0.083-0.356 0.2-0.501 0.354-0.141 0.149-0.252 0.326-0.33 0.531-0.075 0.2-0.112 0.42-0.112 0.66s0.039 0.462 0.118 0.666c0.079 0.204 0.189 0.383 0.33 0.536 0.141 0.149 0.308 0.265 0.501 0.348s0.403 0.124 0.631 0.124c0.259 0 0.489-0.045 0.69-0.136 0.204-0.090 0.377-0.214 0.519-0.371l0.295 0.301c-0.181 0.193-0.397 0.346-0.648 0.46-0.252 0.11-0.533 0.165-0.843 0.165zM26.367 25.533c-0.267 0-0.511-0.065-0.731-0.195-0.216-0.13-0.389-0.305-0.519-0.525-0.126-0.22-0.189-0.466-0.189-0.737 0-0.267 0.063-0.509 0.189-0.725 0.13-0.216 0.303-0.387 0.519-0.513 0.22-0.13 0.464-0.195 0.731-0.195 0.271 0 0.515 0.063 0.731 0.189s0.387 0.299 0.513 0.519c0.13 0.216 0.195 0.458 0.195 0.725 0 0.275-0.065 0.523-0.195 0.743-0.126 0.216-0.297 0.389-0.513 0.519s-0.46 0.195-0.731 0.195zM26.367 25.132c0.197 0 0.369-0.045 0.519-0.136 0.153-0.090 0.273-0.216 0.36-0.377 0.091-0.161 0.136-0.342 0.136-0.542s-0.045-0.377-0.136-0.531c-0.086-0.157-0.206-0.281-0.36-0.371-0.149-0.090-0.322-0.136-0.519-0.136-0.192 0-0.365 0.045-0.519 0.136s-0.273 0.214-0.36 0.371c-0.086 0.153-0.13 0.33-0.13 0.531 0 0.204 0.043 0.387 0.13 0.548 0.087 0.157 0.206 0.281 0.36 0.371s0.326 0.136 0.519 0.136zM29.724 25.533c-0.263 0-0.499-0.063-0.707-0.189-0.208-0.13-0.373-0.303-0.495-0.519-0.118-0.216-0.177-0.46-0.177-0.731 0-0.275 0.059-0.521 0.177-0.737 0.122-0.22 0.287-0.393 0.495-0.519 0.208-0.13 0.442-0.195 0.701-0.195 0.212 0 0.401 0.043 0.566 0.13 0.169 0.083 0.305 0.2 0.407 0.354 0.106 0.149 0.171 0.324 0.195 0.525v0.867c-0.024 0.2-0.088 0.377-0.195 0.531-0.102 0.153-0.238 0.273-0.407 0.36-0.165 0.083-0.352 0.124-0.56 0.124zM29.788 25.138c0.287 0 0.517-0.096 0.69-0.289 0.177-0.193 0.265-0.446 0.265-0.76 0-0.208-0.041-0.391-0.124-0.548-0.079-0.161-0.191-0.285-0.336-0.371-0.141-0.090-0.308-0.136-0.501-0.136-0.196 0-0.371 0.045-0.525 0.136-0.149 0.090-0.269 0.216-0.36 0.377-0.086 0.157-0.13 0.338-0.13 0.542s0.043 0.385 0.13 0.542c0.091 0.157 0.212 0.281 0.365 0.371s0.328 0.136 0.525 0.136zM30.72 25.474v-0.743l0.083-0.684-0.083-0.666v-0.678h0.413v2.771h-0.413zM33.29 25.533c-0.271 0-0.517-0.063-0.737-0.189-0.216-0.13-0.389-0.305-0.519-0.525-0.126-0.22-0.189-0.466-0.189-0.737s0.063-0.515 0.189-0.731c0.13-0.22 0.303-0.393 0.519-0.519 0.22-0.126 0.466-0.189 0.737-0.189 0.208 0 0.403 0.039 0.584 0.118s0.334 0.189 0.46 0.33l-0.271 0.277c-0.094-0.106-0.208-0.187-0.342-0.242-0.133-0.059-0.277-0.088-0.43-0.088-0.196 0-0.371 0.045-0.525 0.136s-0.273 0.214-0.36 0.371c-0.086 0.153-0.13 0.332-0.13 0.536 0 0.2 0.043 0.381 0.13 0.542 0.087 0.157 0.206 0.281 0.36 0.371s0.328 0.136 0.525 0.136c0.157 0 0.303-0.028 0.436-0.083 0.134-0.059 0.248-0.141 0.342-0.248l0.277 0.277c-0.13 0.145-0.287 0.257-0.472 0.336-0.181 0.079-0.375 0.118-0.584 0.118zM36.999 25.474v-1.627c0-0.244-0.073-0.44-0.218-0.589-0.141-0.153-0.33-0.23-0.566-0.23-0.161 0-0.303 0.035-0.424 0.106s-0.218 0.167-0.289 0.289c-0.071 0.122-0.106 0.261-0.106 0.419l-0.189-0.106c0-0.208 0.049-0.395 0.147-0.56s0.23-0.295 0.395-0.389c0.169-0.094 0.361-0.141 0.578-0.141 0.212 0 0.401 0.049 0.566 0.147 0.165 0.094 0.293 0.226 0.383 0.395 0.094 0.169 0.141 0.365 0.141 0.589v1.698h-0.419zM34.983 25.474v-4.173h0.413v4.173h-0.413zM38.248 25.474v-2.771h0.419v2.771h-0.419zM38.455 22.102c-0.079 0-0.145-0.028-0.2-0.083-0.055-0.059-0.083-0.128-0.083-0.206 0-0.083 0.027-0.151 0.083-0.206s0.122-0.083 0.2-0.083c0.086 0 0.155 0.028 0.206 0.083 0.055 0.055 0.083 0.124 0.083 0.206 0 0.079-0.028 0.147-0.083 0.206-0.051 0.055-0.12 0.083-0.206 0.083zM41.578 25.474v-1.627c0-0.244-0.073-0.44-0.218-0.589-0.141-0.153-0.33-0.23-0.566-0.23-0.161 0-0.303 0.035-0.424 0.106s-0.218 0.167-0.289 0.289-0.106 0.261-0.106 0.419l-0.189-0.106c0-0.208 0.049-0.395 0.147-0.56s0.23-0.295 0.395-0.389c0.169-0.094 0.361-0.141 0.578-0.141 0.212 0 0.401 0.051 0.566 0.153s0.293 0.24 0.383 0.413c0.094 0.173 0.141 0.361 0.141 0.566v1.698h-0.419zM39.562 25.474v-2.771h0.413v2.771h-0.413zM43.971 26.7c-0.279 0-0.529-0.053-0.749-0.159-0.216-0.102-0.391-0.248-0.525-0.436l0.271-0.271c0.11 0.149 0.249 0.265 0.419 0.348s0.367 0.124 0.595 0.124c0.314 0 0.564-0.084 0.749-0.253 0.189-0.169 0.283-0.399 0.283-0.69v-0.69l0.083-0.631-0.083-0.625v-0.713h0.413v2.659c0 0.267-0.061 0.501-0.183 0.701s-0.293 0.356-0.513 0.466c-0.216 0.114-0.47 0.171-0.76 0.171zM44 25.444c-0.255 0-0.485-0.061-0.69-0.183s-0.365-0.289-0.483-0.501c-0.118-0.212-0.177-0.452-0.177-0.719s0.057-0.505 0.171-0.713c0.118-0.212 0.279-0.379 0.483-0.501s0.434-0.183 0.69-0.183c0.216 0 0.409 0.041 0.578 0.124 0.173 0.083 0.311 0.2 0.413 0.354 0.106 0.149 0.171 0.326 0.195 0.531v0.784c-0.024 0.2-0.088 0.377-0.195 0.531-0.106 0.149-0.244 0.267-0.413 0.354-0.169 0.083-0.36 0.124-0.572 0.124zM44.077 25.049c0.193 0 0.36-0.041 0.501-0.124 0.145-0.083 0.257-0.199 0.336-0.348 0.083-0.153 0.124-0.332 0.124-0.536 0-0.2-0.041-0.375-0.124-0.525-0.079-0.149-0.191-0.267-0.336-0.354s-0.314-0.13-0.507-0.13c-0.193 0-0.365 0.043-0.519 0.13-0.149 0.087-0.267 0.204-0.354 0.354-0.083 0.149-0.124 0.324-0.124 0.525 0 0.196 0.043 0.371 0.13 0.525s0.204 0.273 0.354 0.36c0.149 0.083 0.322 0.124 0.519 0.124z"></path>
<path fill="#00a5cc" style="fill: var(--color1, #00a5cc)" d="M0 10.526h9.263v9.053h-9.263v-9.053z"></path>
<path fill="#fafcfc" style="fill: var(--color4, #fafcfc)" d="M1.099 18.105v-0.621h1.592c0.303 0 0.541-0.088 0.712-0.265 0.172-0.182 0.258-0.399 0.258-0.652 0-0.172-0.038-0.326-0.114-0.462-0.076-0.141-0.187-0.253-0.333-0.333-0.141-0.081-0.308-0.121-0.5-0.121h-1.614v-0.621h1.508c0.253 0 0.452-0.066 0.599-0.197 0.152-0.136 0.227-0.331 0.227-0.584s-0.078-0.445-0.235-0.576c-0.157-0.136-0.364-0.205-0.621-0.205h-1.478v-0.621h1.493c0.344 0 0.629 0.063 0.856 0.189 0.232 0.121 0.407 0.283 0.523 0.485 0.121 0.202 0.182 0.424 0.182 0.667 0 0.283-0.078 0.531-0.235 0.743-0.152 0.212-0.376 0.379-0.675 0.5l0.061-0.227c0.339 0.121 0.601 0.306 0.788 0.553 0.192 0.243 0.288 0.531 0.288 0.864 0 0.278-0.068 0.528-0.205 0.75s-0.333 0.402-0.591 0.538c-0.253 0.131-0.563 0.197-0.932 0.197h-1.554zM0.621 18.105v-5.26h0.712v5.26h-0.712zM7.193 18.181c-0.359 0-0.682-0.081-0.97-0.243-0.288-0.167-0.515-0.392-0.682-0.675s-0.25-0.604-0.25-0.963c0-0.354 0.081-0.672 0.243-0.955 0.167-0.283 0.389-0.505 0.667-0.667 0.283-0.167 0.599-0.25 0.947-0.25 0.333 0 0.627 0.076 0.879 0.227 0.258 0.152 0.457 0.361 0.599 0.629 0.147 0.268 0.22 0.571 0.22 0.909 0 0.051-0.003 0.106-0.008 0.167-0.005 0.056-0.015 0.121-0.030 0.197h-3.039v-0.568h2.675l-0.25 0.22c0-0.243-0.043-0.447-0.129-0.614-0.086-0.172-0.207-0.303-0.364-0.394-0.157-0.096-0.346-0.144-0.568-0.144-0.232 0-0.437 0.051-0.614 0.152s-0.313 0.243-0.409 0.424c-0.096 0.182-0.144 0.397-0.144 0.644 0 0.253 0.051 0.475 0.152 0.667 0.101 0.187 0.245 0.333 0.432 0.44 0.187 0.101 0.402 0.152 0.644 0.152 0.202 0 0.387-0.035 0.553-0.106 0.172-0.071 0.318-0.177 0.44-0.318l0.44 0.447c-0.172 0.202-0.384 0.356-0.637 0.462-0.248 0.106-0.513 0.159-0.796 0.159z"></path>
</symbol>
<symbol id="close" viewBox="0 0 32 32">
<path d="M17.253 16l7.369-7.369c0.146-0.17 0.222-0.389 0.213-0.613s-0.102-0.436-0.26-0.594-0.37-0.251-0.594-0.26c-0.224-0.009-0.442 0.067-0.613 0.213l-7.369 7.369-7.369-7.378c-0.167-0.167-0.394-0.261-0.631-0.261s-0.464 0.094-0.631 0.261c-0.167 0.167-0.261 0.394-0.261 0.631s0.094 0.464 0.261 0.631l7.378 7.369-7.378 7.369c-0.093 0.080-0.169 0.178-0.222 0.288s-0.083 0.23-0.088 0.353c-0.005 0.122 0.016 0.245 0.061 0.359s0.112 0.218 0.199 0.304c0.087 0.087 0.19 0.154 0.304 0.199s0.236 0.065 0.359 0.061c0.122-0.005 0.243-0.035 0.353-0.088s0.208-0.129 0.288-0.222l7.378-7.369 7.369 7.369c0.17 0.146 0.389 0.222 0.613 0.213s0.436-0.101 0.594-0.26 0.251-0.37 0.26-0.594c0.009-0.224-0.068-0.442-0.213-0.612l-7.369-7.369z"></path>
</symbol>
<symbol id="vector" viewBox="0 0 48 32">
<path fill="#00a5cc" style="fill: var(--color1, #00a5cc)" d="M8 3.199l16 16 16-16 6.4 3.2-22.4 22.4-22.4-22.4 6.4-3.2z"></path>
</symbol>
<symbol id="quote-left" viewBox="0 0 36 32">
<path fill="#fcede4" style="fill: var(--color1, #fcede4)" d="M32.83 16h-5.66v-4.528c0-2.476 1.981-4.528 4.528-4.528h0.566c0.92 0 1.698-0.708 1.698-1.698v-3.396c0-0.92-0.778-1.698-1.698-1.698h-0.566c-6.297 0-11.321 5.094-11.321 11.321v16.981c0 1.91 1.486 3.396 3.396 3.396h9.057c1.84 0 3.396-1.486 3.396-3.396v-9.057c0-1.84-1.557-3.396-3.396-3.396zM12.453 16h-5.66v-4.528c0-2.476 1.981-4.528 4.528-4.528h0.566c0.92 0 1.698-0.708 1.698-1.698v-3.396c0-0.92-0.778-1.698-1.698-1.698h-0.566c-6.297 0-11.321 5.094-11.321 11.321v16.981c0 1.91 1.486 3.396 3.396 3.396h9.057c1.84 0 3.396-1.486 3.396-3.396v-9.057c0-1.84-1.557-3.396-3.396-3.396z"></path>
</symbol>
<symbol id="button-up" viewBox="0 0 32 32">
<path fill="#00a5cc" style="fill: var(--color1, #00a5cc)" d="M32 16c0 8.837-7.163 16-16 16s-16-7.163-16-16c0-8.837 7.163-16 16-16s16 7.163 16 16z"></path>
<path fill="#fafcfc" style="fill: var(--color2, #fafcfc)" d="M22.036 19.928l-5.891-5.818-5.891 5.818-2.356-1.164 8.247-8.145 8.247 8.145-2.356 1.164z"></path>
</symbol>
<symbol id="arrow-min" viewBox="0 0 6 32">
<path fill="#fcd9c4" style="fill: var(--color1, #fcd9c4)" d="M4.303 0h-2.689v29.849h-1.613l2.958 2.151 2.958-2.151h-1.613v-29.849z"></path>
</symbol>
<symbol id="arrow-max" viewBox="0 0 1 32">
<path fill="#ef7229" style="fill: var(--color1, #ef7229)" d="M0.406 31.984c0.022 0.022 0.057 0.022 0.079 0l0.354-0.354c0.022-0.022 0.022-0.057 0-0.079s-0.057-0.022-0.079 0l-0.315 0.315-0.315-0.315c-0.022-0.022-0.057-0.022-0.079 0s-0.022 0.057 0 0.079l0.354 0.354zM0.39 0v31.944h0.111v-31.944h-0.111z"></path>
</symbol>
</defs>
</svg>
