<svg width="363" height="128" viewBox="0 0 363 128" fill="none" xmlns="http://www.w3.org/2000/svg">
<path d="M336.641 127.295C345.387 84.9287 354.136 42.554 362.888 0.170901C322.248 8.14942 280.279 9.46621 238.744 4.06593L238.603 4.21348C254.919 10.6587 270.209 19.3823 283.962 30.0927L280.161 32.8793L279.195 33.6244C195.47 79.8802 99.2906 102.683 1.2726 99.5156L0.025298 99.5502C51.2528 117.413 107.065 118.412 160.131 110.523C213.197 102.635 264.174 86.2138 314.837 69.8645L316.015 70.0006C320.094 71.6379 322.07 76.0748 323.504 80.0423C328.987 95.1005 333.435 110.458 336.818 126.015" fill="#FFCEB2"/>
</svg>
