<svg aria-hidden="true" style="position: absolute; width: 0; height: 0; overflow: hidden;" version="1.1" xmlns="http://www.w3.org/2000/svg" xmlns:xlink="http://www.w3.org/1999/xlink">
<defs>
<symbol id="icon-facebook" viewBox="0 0 32 32">
<path fill="#00a5cc" style="fill: var(--color1, #00a5cc)" d="M11.636 0h8.727c6.427 0 11.636 5.21 11.636 11.636v8.727c0 6.427-5.21 11.636-11.636 11.636h-8.727c-6.427 0-11.636-5.21-11.636-11.636v-8.727c0-6.427 5.21-11.636 11.636-11.636z"></path>
<path fill="#fafcfc" style="fill: var(--color2, #fafcfc)" d="M20.061 17.091l0.485-3.159h-3.031v-2.050c0-0.864 0.424-1.707 1.782-1.707h1.377v-2.689s-1.251-0.213-2.446-0.213c-2.497 0-4.128 1.513-4.128 4.252v2.407h-2.775v3.159h2.775v7.636h3.415v-7.636h2.547z"></path>
</symbol>
<symbol id="icon-instag" viewBox="0 0 32 32">
<path fill="#00a5cc" style="fill: var(--color1, #00a5cc)" d="M11.636 0h8.727c6.427 0 11.636 5.21 11.636 11.636v8.727c0 6.427-5.21 11.636-11.636 11.636h-8.727c-6.427 0-11.636-5.21-11.636-11.636v-8.727c0-6.427 5.21-11.636 11.636-11.636z"></path>
<path fill="#fafcfc" style="fill: var(--color2, #fafcfc)" d="M16.004 12.080c-0.002 0-0.004 0-0.007 0-2.16 0-3.911 1.751-3.911 3.911 0 0.002 0 0.005 0 0.007v-0c0 0.002 0 0.004 0 0.007 0 2.16 1.751 3.911 3.911 3.911 0.002 0 0.005 0 0.007 0h-0c0.002 0 0.004 0 0.007 0 2.16 0 3.911-1.751 3.911-3.911 0-0.002 0-0.005 0-0.007v0c0-0.002 0-0.004 0-0.007 0-2.16-1.751-3.911-3.911-3.911-0.002 0-0.005 0-0.007 0h0zM16.004 18.543c-1.405-0.002-2.544-1.141-2.547-2.546v-0c0.001-1.406 1.141-2.546 2.547-2.547h0c1.406 0.002 2.545 1.141 2.546 2.547v0c-0.003 1.405-1.141 2.543-2.546 2.546h-0zM20.994 11.92c0 0.508-0.409 0.913-0.913 0.913s-0.913-0.409-0.913-0.913 0.409-0.913 0.913-0.913c0.505 0 0.913 0.409 0.913 0.913v0zM23.588 12.847c-0.058-1.223-0.337-2.308-1.233-3.201-0.894-0.893-1.978-1.173-3.201-1.234-1.261-0.071-5.042-0.071-6.303 0-1.22 0.058-2.305 0.337-3.201 1.231s-1.172 1.977-1.234 3.201c-0.071 1.261-0.071 5.042 0 6.303 0.058 1.224 0.337 2.308 1.234 3.201s1.977 1.173 3.201 1.234c1.261 0.072 5.042 0.072 6.303 0 1.224-0.058 2.308-0.337 3.201-1.233 0.893-0.894 1.172-1.978 1.234-3.201 0.071-1.261 0.071-5.039 0-6.3zM21.959 20.5c-0.268 0.666-0.786 1.185-1.435 1.446l-0.017 0.006c-1.006 0.399-3.392 0.307-4.503 0.307s-3.501 0.089-4.503-0.307c-0.666-0.268-1.185-0.786-1.446-1.435l-0.006-0.017c-0.399-1.006-0.307-3.392-0.307-4.503s-0.089-3.501 0.307-4.503c0.268-0.666 0.786-1.184 1.435-1.446l0.017-0.006c1.005-0.399 3.392-0.307 4.503-0.307s3.501-0.089 4.503 0.307c0.666 0.268 1.184 0.786 1.446 1.434l0.006 0.017c0.399 1.006 0.307 3.393 0.307 4.504s0.092 3.501-0.307 4.503z"></path>
</symbol>
<symbol id="icon-linkudun" viewBox="0 0 32 32">
<path fill="#00a5cc" style="fill: var(--color1, #00a5cc)" d="M11.636 0h8.727c6.427 0 11.636 5.21 11.636 11.636v8.727c0 6.427-5.21 11.636-11.636 11.636h-8.727c-6.427 0-11.636-5.21-11.636-11.636v-8.727c0-6.427 5.21-11.636 11.636-11.636z"></path>
<path fill="#fafcfc" style="fill: var(--color2, #fafcfc)" d="M11.324 13.040v11.501h-3.831v-11.501h3.83zM11.567 9.489c0.007 0.565-0.188 1.037-0.586 1.416s-0.922 0.569-1.572 0.569h-0.023c-0.634 0-1.145-0.189-1.532-0.569s-0.58-0.851-0.58-1.416c0-0.572 0.199-1.047 0.598-1.422s0.919-0.563 1.561-0.563 1.156 0.188 1.543 0.563c0.387 0.375 0.585 0.849 0.592 1.422zM25.099 17.949v6.592h-3.818v-6.151c0-0.812-0.157-1.449-0.471-1.909s-0.802-0.69-1.468-0.69c-0.487 0-0.896 0.133-1.225 0.4s-0.575 0.598-0.737 0.993c-0.085 0.232-0.128 0.545-0.128 0.94v6.418h-3.818c0.016-3.087 0.023-5.59 0.023-7.509s-0.004-3.063-0.012-3.435l-0.012-0.557h3.818v1.671h-0.023c0.154-0.247 0.313-0.464 0.476-0.65 0.199-0.219 0.413-0.417 0.644-0.595l0.011-0.008c0.275-0.216 0.611-0.385 1.010-0.505 0.382-0.114 0.82-0.18 1.274-0.18 0.019 0 0.038 0 0.057 0l-0.003-0c1.323 0 2.387 0.439 3.191 1.317s1.207 2.164 1.207 3.859z"></path>
</symbol>
<symbol id="icon-teleg" viewBox="0 0 32 32">
<path fill="#00a5cc" style="fill: var(--color1, #00a5cc)" d="M11.636 0h8.727c6.427 0 11.636 5.21 11.636 11.636v8.727c0 6.427-5.21 11.636-11.636 11.636h-8.727c-6.427 0-11.636-5.21-11.636-11.636v-8.727c0-6.427 5.21-11.636 11.636-11.636z"></path>
<path fill="#fafcfc" style="fill: var(--color2, #fafcfc)" d="M22.092 10.314l-12.887 4.748c-0.519 0.221-0.694 0.664-0.125 0.904l3.306 1.004 7.993-4.72c0.436-0.296 0.884-0.217 0.499 0.109l-6.865 5.939-0.215 2.513c0.2 0.388 0.566 0.39 0.799 0.197l1.899-1.716 3.253 2.327c0.756 0.427 1.167 0.151 1.329-0.633l2.133-9.652c0.222-0.964-0.156-1.389-1.119-1.020z"></path>
</symbol>
<symbol id="icon-watApp" viewBox="0 0 32 32">
<path fill="#00a5cc" style="fill: var(--color1, #00a5cc)" d="M11.636 0h8.727c6.427 0 11.636 5.21 11.636 11.636v8.727c0 6.427-5.21 11.636-11.636 11.636h-8.727c-6.427 0-11.636-5.21-11.636-11.636v-8.727c0-6.427 5.21-11.636 11.636-11.636z"></path>
<path fill="#fafcfc" style="fill: var(--color2, #fafcfc)" d="M19.938 17.732c-0.217-0.108-1.279-0.631-1.477-0.703s-0.342-0.108-0.487 0.109c-0.144 0.215-0.558 0.703-0.684 0.847s-0.252 0.162-0.468 0.055c-0.216-0.109-0.913-0.337-1.738-1.073-0.642-0.573-1.076-1.281-1.202-1.497s-0.014-0.333 0.095-0.441c0.097-0.097 0.216-0.252 0.324-0.378s0.144-0.217 0.216-0.361c0.073-0.144 0.036-0.27-0.018-0.378s-0.486-1.172-0.666-1.605c-0.175-0.421-0.353-0.364-0.486-0.371-0.127-0.006-0.271-0.007-0.415-0.007s-0.378 0.054-0.576 0.271c-0.199 0.216-0.756 0.739-0.756 1.803s0.774 2.091 0.882 2.236c0.108 0.144 1.524 2.327 3.692 3.263 0.516 0.223 0.919 0.356 1.232 0.455 0.518 0.165 0.989 0.142 1.361 0.086 0.415-0.062 1.279-0.523 1.459-1.028s0.18-0.937 0.126-1.028-0.198-0.144-0.415-0.252h0.001zM15.995 23.116h-0.003c-0 0-0.001 0-0.002 0-1.35 0-2.612-0.372-3.691-1.020l0.032 0.018-0.262-0.156-2.721 0.714 0.727-2.653-0.171-0.272c-0.69-1.082-1.099-2.401-1.099-3.815 0-0.004 0-0.007 0-0.011v0.001c0.001-3.964 3.226-7.188 7.192-7.188 1.92 0 3.725 0.749 5.082 2.108 1.299 1.294 2.103 3.085 2.103 5.063 0 0.008 0 0.016-0 0.024v-0.001c-0.001 3.964-3.226 7.189-7.188 7.189zM22.113 9.809c-1.557-1.567-3.714-2.537-6.097-2.537-0.008 0-0.015 0-0.023 0h0.001c-4.767 0-8.647 3.88-8.649 8.649 0 0.004 0 0.008 0 0.013 0 1.587 0.429 3.074 1.176 4.352l-0.022-0.041-1.227 4.482 4.585-1.203c1.194 0.663 2.618 1.053 4.134 1.053h0.004c4.767 0 8.647-3.88 8.649-8.649 0-0.008 0-0.017 0-0.027 0-2.38-0.967-4.535-2.531-6.091l-0-0z"></path>
</symbol>
</defs>
</svg>
